<svg width="206" height="28" viewBox="0 0 206 28" fill="none" xmlns="http://www.w3.org/2000/svg">
<path fill-rule="evenodd" clip-rule="evenodd" d="M128.211 15.9248C129.694 16.2089 130.802 16.663 131.538 17.2867C132.555 18.1557 133.065 19.2206 133.065 20.4771C133.065 21.4317 132.729 22.3479 132.057 23.2224C131.384 24.0956 130.463 24.7344 129.293 25.1364C128.12 25.5384 126.334 25.7397 123.927 25.7397H113.844V25.2144H114.648C115.541 25.2144 116.182 24.9584 116.57 24.4496C116.811 24.1175 116.932 23.4121 116.932 22.3349V9.91013C116.932 8.72004 116.78 7.96668 116.476 7.6565C116.065 7.23818 115.458 7.03127 114.648 7.03127H113.844V6.50675H123.077C124.798 6.50675 126.18 6.61916 127.221 6.84782C128.795 7.1881 129.999 7.78871 130.827 8.65698C131.658 9.52117 132.07 10.5156 132.07 11.6399C132.07 12.6048 131.746 13.4698 131.095 14.2278C130.445 14.9899 129.482 15.5556 128.211 15.9248ZM119.957 15.1584C120.346 15.2256 120.789 15.2754 121.288 15.3063C121.788 15.3412 122.334 15.3564 122.936 15.3564C124.466 15.3564 125.621 15.2071 126.395 14.9105C127.165 14.6125 127.754 14.1558 128.164 13.5416C128.576 12.928 128.78 12.2562 128.78 11.5283C128.78 10.4013 128.269 9.44252 127.25 8.65095C126.234 7.85452 124.747 7.45733 122.792 7.45733C121.743 7.45733 120.796 7.55999 119.957 7.76891V15.1584ZM119.957 24.3489C121.173 24.6051 122.379 24.733 123.564 24.733C125.467 24.733 126.915 24.3461 127.913 23.5744C128.911 22.8055 129.41 21.8536 129.41 20.7182C129.41 19.9691 129.183 19.2542 128.732 18.5639C128.28 17.8728 127.545 17.3278 126.526 16.9312C125.508 16.5327 124.246 16.3349 122.747 16.3349C122.094 16.3349 121.539 16.3458 121.076 16.365C120.614 16.3829 120.241 16.4165 119.957 16.465V24.3489Z" fill="#AF0B35" stroke="#9D1D26" stroke-width="0.0140607"/>
<path fill-rule="evenodd" clip-rule="evenodd" d="M149.591 19.2998H141.318L139.873 22.3348C139.515 23.0811 139.335 23.6407 139.335 24.0076C139.335 24.3021 139.491 24.5589 139.798 24.7808C140.11 25.004 140.782 25.1486 141.808 25.2123V25.7403H135.081V25.2123C135.973 25.0733 136.552 24.8877 136.813 24.661C137.351 24.2083 137.944 23.2853 138.594 21.8958L146.11 6.06763H146.663L154.098 22.0662C154.697 23.3509 155.241 24.1858 155.728 24.57C156.216 24.9527 156.897 25.1663 157.768 25.2123V25.7403H149.338V25.2123C150.191 25.1752 150.764 25.0506 151.066 24.8314C151.364 24.6157 151.512 24.3486 151.512 24.0384C151.512 23.6207 151.303 22.9648 150.883 22.0662L149.591 19.2998ZM149.15 18.2506L145.528 10.4777L141.808 18.2506H149.15Z" fill="#AF0B35" stroke="#9D1D26" stroke-width="0.0140607"/>
<path fill-rule="evenodd" clip-rule="evenodd" d="M157.704 6.50652H163.502L176.564 20.9309V9.84001C176.564 8.65943 176.416 7.92124 176.122 7.62617C175.734 7.2296 175.12 7.03158 174.279 7.03158H173.536V6.50652H180.973V7.03158H180.219C179.315 7.03158 178.676 7.27675 178.295 7.76922C178.065 8.07124 177.95 8.76014 177.95 9.84001V26.051H177.383L163.298 10.5625V22.4073C163.298 23.5871 163.441 24.3253 163.725 24.6204C164.122 25.0148 164.738 25.2142 165.565 25.2142H166.324V25.7401H158.887V25.2142H159.63C160.543 25.2142 161.188 24.9677 161.565 24.4787C161.795 24.1726 161.914 23.4844 161.914 22.4073V9.03194C161.294 8.37795 160.822 7.94798 160.5 7.74047C160.182 7.53161 159.712 7.33714 159.092 7.15911C158.786 7.07545 158.325 7.03158 157.704 7.03158V6.50652Z" fill="#AF0B35" stroke="#9D1D26" stroke-width="0.0140607"/>
<path fill-rule="evenodd" clip-rule="evenodd" d="M191.076 15.0738L198.952 22.1216C200.243 23.2857 201.346 24.08 202.258 24.4984C203.175 24.9174 204.087 25.1566 205 25.2148V25.7399H194.841V25.2148C195.447 25.2148 195.886 25.1223 196.153 24.9367C196.423 24.7546 196.559 24.5457 196.559 24.3217C196.559 24.0944 196.507 23.8923 196.407 23.7116C196.308 23.5315 195.979 23.1961 195.424 22.7049L188.047 16.1371V22.3352C188.047 23.3082 188.117 23.9514 188.253 24.2643C188.36 24.5013 188.579 24.7039 188.915 24.8744C189.367 25.1003 189.846 25.2148 190.35 25.2148H191.076V25.7399H181.967V25.2148H182.722C183.605 25.2148 184.246 24.9819 184.646 24.5197C184.897 24.2185 185.024 23.4897 185.024 22.3352V9.91039C185.024 8.93453 184.956 8.28736 184.821 7.96689C184.715 7.74036 184.499 7.54313 184.171 7.37254C183.711 7.14461 183.229 7.03147 182.722 7.03147H181.967V6.5064H191.076V7.03147H190.35C189.855 7.03147 189.379 7.14035 188.915 7.35683C188.588 7.50957 188.365 7.73475 188.238 8.03756C188.114 8.34018 188.047 8.96462 188.047 9.91039V15.7961C188.26 15.6175 188.98 15.0169 190.207 13.9951C193.328 11.4231 195.211 9.70769 195.864 8.84703C196.146 8.46831 196.29 8.13809 196.29 7.85472C196.29 7.63612 196.18 7.44455 195.957 7.28151C195.738 7.11378 195.366 7.03147 194.841 7.03147H194.35V6.5064H202.196V7.03147C201.737 7.04037 201.315 7.09861 200.936 7.20073C200.558 7.30479 200.096 7.50822 199.551 7.80463C199.005 8.10122 198.332 8.58322 197.535 9.24477C197.303 9.43169 196.238 10.4015 194.336 12.151L191.076 15.0738Z" fill="#AF0B35" stroke="#9D1D26" stroke-width="0.0140607"/>
<path fill-rule="evenodd" clip-rule="evenodd" d="M54.6563 25.746H45.9863V24.7881C46.7483 24.7415 47.3806 24.6524 47.8845 24.5169C48.3906 24.3812 48.6411 24.2162 48.6411 24.0169C48.6411 23.9355 48.6295 23.8382 48.6138 23.7197C48.5913 23.604 48.5631 23.4978 48.5247 23.4089L46.7922 19.1132H39.4992C39.2261 19.7438 39.0034 20.293 38.833 20.7594C38.6618 21.227 38.5077 21.6599 38.3708 22.0571C38.2419 22.4453 38.1536 22.7604 38.1051 23.0007C38.0577 23.2472 38.0338 23.4458 38.0338 23.5972C38.0338 23.958 38.3391 24.2387 38.9563 24.4333C39.5731 24.634 40.2677 24.7523 41.0414 24.7881V25.746H33.206V24.7881C33.4601 24.7681 33.7779 24.7196 34.1586 24.6305C34.5408 24.5456 34.8529 24.4292 35.0989 24.288C35.4898 24.045 35.7932 23.7909 36.0096 23.5238C36.2247 23.2569 36.4328 22.8904 36.6409 22.4234C37.6865 20.0178 38.8384 17.3135 40.1012 14.3149C41.3633 11.3141 42.487 8.64618 43.4744 6.30208H44.6496L51.5919 22.8411C51.7357 23.1925 51.9028 23.4759 52.0897 23.6917C52.2761 23.9081 52.5329 24.1211 52.867 24.3265C53.0924 24.4532 53.3855 24.5613 53.7504 24.6462C54.1107 24.7304 54.4112 24.7783 54.6563 24.7881V25.746ZM46.265 17.9101L43.1073 10.4781L40.0136 17.9101H46.265Z" fill="#AF0B35" stroke="#9D1D26" stroke-width="0.0140607"/>
<path fill-rule="evenodd" clip-rule="evenodd" d="M75.5015 18.0841C75.2674 18.1141 74.9516 18.1553 74.5571 18.2135C74.1587 18.2723 73.8376 18.3571 73.5938 18.4633C73.3007 18.5982 73.0911 18.7913 72.9699 19.0365C72.8488 19.2844 72.7884 19.5768 72.7884 19.911V21.3964C72.7884 22.4768 72.7933 23.2069 72.809 23.5848C72.8228 23.9656 72.8399 24.2731 72.8589 24.517C71.5585 25.0585 70.2622 25.4708 68.9727 25.7612C67.6786 26.0473 66.4137 26.1933 65.1708 26.1933C63.8404 26.1933 62.5571 25.9631 61.3272 25.5031C60.0938 25.0428 59.0194 24.3923 58.0991 23.5438C57.1685 22.6886 56.4296 21.647 55.8831 20.4233C55.3332 19.1967 55.0634 17.8278 55.0634 16.3137C55.0634 14.8546 55.3229 13.502 55.846 12.2536C56.3686 11.008 57.1095 9.92466 58.0696 9.00435C58.9969 8.10446 60.1048 7.40332 61.3922 6.90347C62.6774 6.40424 64.0553 6.15365 65.5222 6.15365C66.6979 6.15365 67.7211 6.28506 68.59 6.54595C69.4611 6.80623 70.2287 7.12049 70.8956 7.49166L71.4962 6.57057H72.6706L72.7995 13.2754H71.5989C71.3929 12.5345 71.1367 11.8099 70.836 11.0936C70.5321 10.376 70.1398 9.73578 69.6603 9.16667C69.1816 8.60041 68.5969 8.14699 67.9072 7.8108C67.217 7.47107 66.3945 7.3026 65.4366 7.3026C64.3895 7.3026 63.4549 7.49842 62.6316 7.89097C61.8113 8.28054 61.0978 8.86538 60.4904 9.63989C59.8917 10.3876 59.4344 11.3196 59.1131 12.4373C58.7886 13.5548 58.6271 14.8025 58.6271 16.1788C58.6271 17.3978 58.7845 18.5435 59.1009 19.6179C59.4228 20.6945 59.8844 21.6237 60.4904 22.4091C61.0978 23.2117 61.8544 23.8402 62.7625 24.3019C63.6738 24.7586 64.7073 24.9894 65.8605 24.9894C66.722 24.9894 67.5052 24.8697 68.2161 24.6264C68.9248 24.3813 69.4281 24.1266 69.7193 23.8541C69.7979 23.3876 69.8412 22.9145 69.8439 22.4345C69.8494 21.9577 69.8521 21.5538 69.8521 21.2195V20.1671C69.8521 19.787 69.7974 19.4522 69.6843 19.1604C69.5727 18.8653 69.3392 18.6538 68.9851 18.5154C68.6625 18.3839 68.2264 18.2813 67.6723 18.2135C67.1219 18.1456 66.6857 18.1046 66.3747 18.0841V17.1006H75.5015V18.0841Z" fill="#AF0B35" stroke="#9D1D26" stroke-width="0.0140607"/>
<path fill-rule="evenodd" clip-rule="evenodd" d="M98.9275 25.7461H93.3203C92.0795 23.9547 90.9566 22.4045 89.9526 21.0998C88.9514 19.794 87.8607 18.4436 86.6888 17.0576H84.5613V23.1385C84.5613 23.4521 84.6148 23.7322 84.7228 23.9691C84.829 24.2095 85.0598 24.3924 85.4112 24.517C85.5878 24.5786 85.8972 24.639 86.3376 24.6909C86.7766 24.7457 87.1463 24.7785 87.4511 24.7882V25.7461H78.6475V24.7882C78.8816 24.7682 79.2199 24.7395 79.6691 24.6909C80.1137 24.6471 80.4211 24.591 80.5997 24.517C80.8928 24.4019 81.1038 24.2293 81.2373 24.0026C81.3702 23.7781 81.4324 23.4898 81.4324 23.1385V9.27562C81.4324 8.96057 81.3872 8.68128 81.2894 8.43806C81.1921 8.19503 80.96 8.01078 80.5997 7.8821C80.3548 7.80271 80.0356 7.72875 79.6466 7.66374C79.2535 7.59386 78.9193 7.54859 78.6475 7.53153V6.57144H88.2578C89.1391 6.57144 89.9608 6.65625 90.738 6.82124C91.5133 6.98916 92.209 7.25766 92.8383 7.62877C93.4436 7.98616 93.9285 8.4586 94.2907 9.03862C94.6524 9.62139 94.8303 10.3192 94.8303 11.1397C94.8303 11.8799 94.7111 12.5333 94.4654 13.0995C94.2195 13.6659 93.8594 14.1582 93.3794 14.5724C92.9383 14.9608 92.4117 15.2957 91.794 15.5771C91.1771 15.8633 90.4969 16.1049 89.7547 16.3002C90.7832 17.554 91.6358 18.6086 92.3165 19.4639C92.9952 20.3205 93.8306 21.3607 94.8173 22.5844C95.248 23.1268 95.6377 23.5239 95.9835 23.7807C96.3322 24.0362 96.6773 24.2472 97.0203 24.4101C97.2744 24.5265 97.5921 24.6184 97.9708 24.6772C98.3556 24.7416 98.6728 24.7785 98.9275 24.7882V25.7461ZM91.2091 11.4499C91.2091 10.2864 90.8469 9.36805 90.1217 8.68883C89.3979 8.00669 88.3749 7.66916 87.0573 7.66916H84.5613V15.8962H86.4829C87.8326 15.8962 88.9555 15.4989 89.8567 14.6998C90.758 13.9027 91.2091 12.8194 91.2091 11.4499Z" fill="#AF0B35" stroke="#9D1D26" stroke-width="0.0140607"/>
<path fill-rule="evenodd" clip-rule="evenodd" d="M110.333 25.746H100.957V24.8827C101.222 24.8654 101.602 24.8435 102.101 24.8101C102.599 24.7784 102.954 24.7291 103.159 24.6662C103.48 24.5606 103.714 24.4135 103.86 24.2341C104.009 24.0513 104.083 23.798 104.083 23.4746V9.41806C104.083 9.1317 104.032 8.31412 103.918 8.12312C103.815 7.92998 103.559 7.77102 103.159 7.64173C102.864 7.5437 102.495 7.4534 102.05 7.3692C101.606 7.2836 101.241 7.23212 100.957 7.2164V6.35355H110.333V7.2164C110.029 7.22536 109.667 7.25271 109.247 7.30821C108.825 7.36086 108.459 7.42721 108.146 7.50818C107.775 7.60676 107.529 7.76365 107.399 7.9828C107.272 8.20385 107.21 8.4442 107.21 8.7113V23.3397C107.21 23.6068 107.279 23.8438 107.42 24.0513C107.564 24.258 107.804 24.4224 108.146 24.5435C108.35 24.6052 108.689 24.6771 109.153 24.7565C109.618 24.8312 110.01 24.8756 110.333 24.8827V25.746Z" fill="#AF0B35" stroke="#9D1D26" stroke-width="0.0140607"/>
<path fill-rule="evenodd" clip-rule="evenodd" d="M28.4901 1.70223C28.4901 0.993466 27.9089 0.418381 27.1928 0.418381H2.29945C1.5799 0.418381 1 0.993466 1 1.70223V26.297C1 27.0106 1.5799 27.5816 2.29945 27.5816H27.1928C27.9089 27.5816 28.4901 27.0106 28.4901 26.297V1.70223Z" fill="white" stroke="#C4C6C8" stroke-width="0.0303407"/>
<path fill-rule="evenodd" clip-rule="evenodd" d="M10.5839 26.2849L25.354 26.2861C26.3494 26.2861 27.1691 25.4777 27.1691 24.4938L27.1727 9.89253L10.5839 26.2849Z" fill="#00422B"/>
<path fill-rule="evenodd" clip-rule="evenodd" d="M27.1748 3.51199C27.1748 2.507 26.3529 1.71757 25.3575 1.71757H19.9221L2.31584 19.1368V24.4852C2.31584 25.4738 3.11198 26.2836 4.13031 26.2836L9.47677 26.2848L27.1727 8.79667L27.1748 3.51199Z" fill="#AF0B35"/>
<path fill-rule="evenodd" clip-rule="evenodd" d="M4.13493 1.71382C3.11714 1.71382 2.31832 2.50112 2.31832 3.5072L2.31589 18.0228L18.8161 1.71784L4.13493 1.71382Z" fill="#00422B"/>
<path fill-rule="evenodd" clip-rule="evenodd" d="M11.2118 26.0369C11.2118 26.0369 12.1524 25.6608 13.027 25.5116C13.3578 25.438 15.2751 24.9923 15.1763 23.0435C15.1528 22.5362 14.3876 23.181 14.3876 23.181C14.3876 23.181 12.8716 23.3918 12.2395 23.7808C11.9242 23.9638 11.2193 24.7364 11.2118 26.0369Z" fill="#FFDC00" stroke="#9D1D26" stroke-width="0.0303407"/>
<path fill-rule="evenodd" clip-rule="evenodd" d="M17.7174 19.7915C17.7174 19.7915 18.0738 21.999 16.2986 22.7013C15.5437 23.0106 14.4126 23.3576 14.2376 23.534C14.2376 23.534 13.8339 21.999 15.1459 21.0771C15.5672 20.7773 16.4309 20.4896 16.986 20.2897C17.5216 20.096 17.7174 19.7915 17.7174 19.7915Z" fill="#FFDC00" stroke="#9D1D26" stroke-width="0.0303407"/>
<path fill-rule="evenodd" clip-rule="evenodd" d="M18.6348 17.0621C18.6348 17.0621 19.7421 18.4 18.5003 19.9329C18.2335 20.2866 16.9052 21.1375 16.571 21.5339C16.571 21.5339 15.9085 20.1084 16.7075 18.9482C16.9263 18.618 17.6826 18.0068 18.0147 17.7651C18.3478 17.52 18.6348 17.0621 18.6348 17.0621Z" fill="#FFDC00" stroke="#9D1D26" stroke-width="0.0303407"/>
<path fill-rule="evenodd" clip-rule="evenodd" d="M17.2873 14.1461C17.2873 14.1461 16.2502 14.7443 16.9389 16.4509C17.0051 16.6488 17.8093 18.0695 17.8357 18.4633C17.8357 18.4633 19.2728 17.5827 18.6914 15.787C18.6022 15.4576 17.9322 14.4101 17.2873 14.1461Z" fill="#FFDC00" stroke="#9D1D26" stroke-width="0.0303407"/>
<path fill-rule="evenodd" clip-rule="evenodd" d="M14.6423 11.8178C14.6423 11.8178 14.2864 12.8942 15.1306 13.9065C15.4864 14.3191 17.0821 14.8032 17.7702 15.307C17.7702 15.307 18.6118 12.5891 14.6423 11.8178Z" fill="#FFDC00" stroke="#9D1D26" stroke-width="0.0303407"/>
<path fill-rule="evenodd" clip-rule="evenodd" d="M12.429 9.89253C12.429 9.89253 15.8805 10.1377 15.4165 13.2609C15.4165 13.2609 14.6359 12.7774 13.9999 12.5248C13.7231 12.389 12.3459 11.9589 12.429 10.6792C12.452 10.3274 12.429 9.89253 12.429 9.89253Z" fill="#FFDC00" stroke="#9D1D26" stroke-width="0.0303407"/>
<path fill-rule="evenodd" clip-rule="evenodd" d="M12.493 6.92444C12.493 6.92444 11.2074 7.88831 11.8475 9.50884C11.9623 9.8161 12.6276 10.6961 12.9807 10.85C12.9807 10.85 13.3811 9.72842 13.6256 8.91791C13.7154 8.58775 13.9598 7.29658 13.1582 6.79217C12.7361 6.55254 12.493 6.92444 12.493 6.92444Z" fill="#FFDC00" stroke="#9D1D26" stroke-width="0.0303407"/>
<path fill-rule="evenodd" clip-rule="evenodd" d="M12.2248 7.88438C12.2248 7.88438 11.2287 4.98949 14.7983 4.20408C14.7983 4.20408 15.5957 5.3216 14.2896 6.48256C13.9365 6.81145 12.4509 7.55622 12.2248 7.88438Z" fill="#FFDC00" stroke="#9D1D26" stroke-width="0.0303407"/>
<path fill-rule="evenodd" clip-rule="evenodd" d="M17.7905 2.00415C17.7905 2.00415 14.0873 1.91916 14.2433 5.19709C14.2433 5.19709 16.5622 4.49265 17.1868 3.81325C17.4956 3.46012 17.8317 2.79626 17.7905 2.00415Z" fill="#FFDC00" stroke="#9D1D26" stroke-width="0.0303407"/>
</svg>
