<?xml version="1.0" encoding="utf-8"?>
<!-- Generator: Adobe Illustrator 24.2.0, SVG Export Plug-In . SVG Version: 6.00 Build 0)  -->
<svg version="1.1" id="Layer_1" xmlns="http://www.w3.org/2000/svg" xmlns:xlink="http://www.w3.org/1999/xlink" x="0px" y="0px"
	 viewBox="0 0 595.275 595.276" enable-background="new 0 0 595.275 595.276" xml:space="preserve">
<path fill-rule="evenodd" clip-rule="evenodd" fill="#992621" d="M297.637,0c164.354,0,297.638,133.285,297.638,297.638
	S461.991,595.276,297.637,595.276C133.284,595.276,0,461.991,0,297.638S133.284,0,297.637,0"/>
<path fill-rule="evenodd" clip-rule="evenodd" fill="#D9261C" d="M297.637,14.044c156.598,0,283.594,126.996,283.594,283.594
	S454.235,581.232,297.637,581.232S14.044,454.236,14.044,297.638S141.04,14.044,297.637,14.044"/>
<path fill-rule="evenodd" clip-rule="evenodd" fill="#FFF500" d="M554.52,177.259c17.155,36.544,26.76,77.337,26.76,120.379
	c0,156.652-126.991,283.641-283.642,283.641S13.995,454.29,13.995,297.638c0-43.617,9.856-84.929,27.446-121.847l64.582,70.658
	c-4.352,16.331-6.684,33.486-6.684,51.189c0,109.518,88.782,198.299,198.299,198.299s198.3-88.781,198.3-198.299
	c0-17.757-2.348-34.963-6.725-51.339L554.52,177.259z"/>
<path fill="#992621" d="M533.827,169.276c10.713,19.711,18.871,40.592,24.348,62.14c5.481,21.563,8.285,43.805,8.285,66.223
	c0,74.233-30.089,141.439-78.736,190.086c-48.647,48.647-115.854,78.736-190.087,78.736c-74.233,0-141.439-30.089-190.086-78.736
	c-48.647-48.647-78.736-115.853-78.736-190.086c0-22.27,2.769-44.371,8.182-65.809c5.412-21.433,13.468-42.201,24.045-61.808
	l2.989,1.608c-10.441,19.357-18.396,39.86-23.739,61.024c-5.342,21.159-8.076,42.983-8.076,64.984
	c0,73.294,29.708,139.649,77.74,187.681s114.387,77.74,187.681,77.74c73.295,0,139.65-29.708,187.681-77.74
	c48.032-48.032,77.741-114.387,77.741-187.681c0-22.138-2.768-44.099-8.179-65.386c-5.415-21.302-13.467-41.92-24.03-61.356
	L533.827,169.276z"/>
<path fill="#992621" d="M523.171,180.024c9.47,18.16,16.678,37.326,21.517,57.071c4.841,19.757,7.316,40.081,7.316,60.543
	c0,70.241-28.472,133.833-74.502,179.864c-46.032,46.032-109.624,74.502-179.864,74.502c-70.241,0-133.833-28.47-179.864-74.502
	c-46.031-46.03-74.503-109.623-74.503-179.864c0-20.34,2.445-40.545,7.231-60.195c4.785-19.642,11.907-38.708,21.265-56.777
	l3.017,1.555c-9.239,17.839-16.268,36.651-20.986,56.02c-4.716,19.361-7.124,39.298-7.124,59.398
	c0,69.302,28.09,132.044,73.505,177.459c45.415,45.415,108.157,73.505,177.459,73.505c69.303,0,132.044-28.09,177.46-73.505
	c45.415-45.415,73.505-108.157,73.505-177.459c0-20.219-2.438-40.275-7.209-59.745c-4.776-19.482-11.885-38.39-21.224-56.3
	L523.171,180.024z"/>
<path fill="#992621" d="M511.925,189.771c8.427,16.741,14.833,34.342,19.13,52.434c4.3,18.103,6.493,36.704,6.493,55.433
	c0,66.249-26.853,126.226-70.268,169.641c-43.415,43.415-103.392,70.268-169.642,70.268c-66.249,0-126.226-26.853-169.641-70.268
	c-43.415-43.415-70.268-103.392-70.268-169.641c0-18.533,2.149-36.944,6.362-54.876c4.214-17.933,10.491-35.377,18.747-51.973
	l3.043,1.515c-8.141,16.365-14.329,33.56-18.48,51.229c-4.153,17.67-6.27,35.823-6.27,54.106c0,65.31,26.472,124.437,69.271,167.236
	s101.927,69.271,167.236,69.271c65.311,0,124.437-26.471,167.236-69.271c42.8-42.8,69.273-101.927,69.273-167.236
	c0-18.468-2.163-36.806-6.4-54.649c-4.24-17.854-10.552-35.205-18.851-51.69L511.925,189.771z"/>
<path fill="#992621" d="M500.149,198.569c7.549,15.431,13.285,31.615,17.129,48.227c3.85,16.628,5.812,33.683,5.812,50.842
	c0,62.257-25.236,118.621-66.034,159.419c-40.8,40.8-97.162,66.034-159.42,66.034c-62.257,0-118.62-25.234-159.419-66.034
	c-40.799-40.798-66.034-97.162-66.034-159.419c0-16.636,1.846-33.185,5.473-49.35c3.623-16.152,9.023-31.902,16.135-46.954
	l3.069,1.449c-7.008,14.834-12.329,30.347-15.896,46.25c-3.565,15.89-5.38,32.189-5.38,48.606
	c0,61.318,24.854,116.831,65.037,157.014c40.183,40.183,95.696,65.037,157.014,65.037c61.318,0,116.83-24.854,157.015-65.037
	c40.183-40.183,65.037-95.696,65.037-157.014c0-16.922-1.93-33.723-5.719-50.084c-3.79-16.377-9.436-32.315-16.863-47.497
	L500.149,198.569z"/>
<path fill-rule="evenodd" clip-rule="evenodd" fill="#992621" d="M296.847,459.428c73.352,0,140.587,24.615,192.898,65.529
	c-24.269,20.531-51.863,37.246-81.866,49.221c-33.131-21.027-70.915-32.955-111.032-32.955c-39.866,0-77.429,11.781-110.411,32.564
	c-29.948-12.072-57.477-28.874-81.671-49.477C156.957,483.777,223.878,459.428,296.847,459.428"/>
<path fill-rule="evenodd" clip-rule="evenodd" fill="#D9261C" d="M125.701,524.779c18.387,13.939,38.419,25.622,59.636,34.735
	c33.923-20.066,71.874-31.046,111.51-31.046c39.905,0,78.092,11.127,112.179,31.441c21.258-9.045,41.341-20.668,59.783-34.553
	c-50.333-35.011-110.451-53.173-171.962-53.173C235.678,472.184,175.877,490.137,125.701,524.779"/>
<path fill="#FFF500" d="M381.112,526.86l7.243-16.271c0.164-0.369,0.272-0.696,0.325-0.989c0.052-0.287-0.022-0.533-0.213-0.736
	c-0.164-0.25-0.499-0.508-1.005-0.779c-0.499-0.267-0.969-0.511-1.397-0.733l-1.013-0.45l0.853-1.917l12.439,5.537l-1.211,18.833
	l12.923-13.617l12.305,5.477l-0.853,1.917l-1.605-0.714c-0.433-0.194-0.853-0.33-1.261-0.407c-0.407-0.078-0.774-0.029-1.098,0.152
	c-0.172,0.247-0.365,0.544-0.58,0.89c-0.215,0.346-0.339,0.555-0.372,0.629l-0.459,1.032l-7.909,17.764
	c-0.131,0.295-0.223,0.585-0.273,0.872c-0.052,0.286,0.098,0.603,0.447,0.949c0.349,0.347,0.778,0.634,1.288,0.861l0.688,0.306
	l0.994,0.442l-0.853,1.917l-14.444-6.431l0.853-1.915l2.216,0.986c0.451,0.083,0.764,0.134,0.939,0.153
	c0.407-0.025,0.714-0.146,0.917-0.364c0.207-0.224,0.429-0.604,0.67-1.144l8.989-20.191l-19.324,20.366l-1.911-0.851l1.921-27.761
	l-7.461,16.55c-0.777,1.745-1.131,3.089-1.062,4.032c0.105,1.343,0.96,2.371,2.565,3.084l0.382,0.171l-0.853,1.917l-10.851-4.833
	l0.853-1.916c1.63,0.726,2.931,0.819,3.906,0.275C379.623,529.518,380.391,528.482,381.112,526.86 M354.026,513.816l8.122,2.33
	l-1.161-10.825L354.026,513.816z M349.079,515.588l15.004-18.025l3.056,0.876l3.429,26.584c0.056,0.715,0.13,1.422,0.22,2.119
	c0.194,0.839,0.989,1.459,2.382,1.858l-0.566,1.978l-13.591-3.896l0.602-2.095l0.931,0.394c0.536,0.153,0.965,0.227,1.285,0.22
	c0.321-0.005,0.569-0.06,0.744-0.164c0.176-0.109,0.301-0.291,0.375-0.55c0.037-0.13,0.061-0.262,0.071-0.399
	c-0.008-0.373-0.01-0.625,0.001-0.763l-0.517-4.875l-10.213-2.929c-0.44,0.524-0.891,1.087-1.358,1.702
	c-0.465,0.607-0.781,1.203-0.943,1.772c-0.269,0.937-0.112,1.73,0.472,2.373c0.583,0.649,1.371,1.113,2.362,1.397l0.425,0.038
	l-0.589,2.055l-11.58-3.32l0.6-2.095c1.43,0.269,2.841-0.094,4.23-1.095C346.749,518.151,347.805,517.097,349.079,515.588z
	 M319.761,519.479l-11.93-1.676l0.304-2.157c1.879,0.264,3.151,0.116,3.821-0.442c0.67-0.558,1.132-1.742,1.386-3.553l2.492-17.736
	c-0.812-1.635-2.17-2.587-4.076-2.855l0.293-2.078l10.437,1.467l13.572,20.647l1.628-11.584c0.239-1.705,0.078-2.964-0.483-3.776
	c-0.562-0.812-1.727-1.343-3.495-1.59l0.293-2.078l11.763,1.653l-0.291,2.078c-1.664,0.011-2.773,0.194-3.33,0.549
	c-0.557,0.357-0.958,0.857-1.203,1.501c-0.246,0.645-0.413,1.185-0.503,1.62c-0.089,0.436-0.176,0.96-0.263,1.572l-0.061,0.44
	l-2.92,20.773l-2.568-0.359l-16.395-25.2l-2.089,14.861c-0.254,1.812-0.142,3.117,0.336,3.917c0.567,0.976,1.762,1.593,3.583,1.848
	L319.761,519.479z M264.076,501.752l-2.017,0.141l-0.092-10.913l27.539-1.926l1.427,10.82l-2.086,0.146
	c-0.526-2.337-1.344-4.234-2.453-5.693c-1.479-1.973-3.29-2.883-5.432-2.734c-0.306,0.022-0.608,0.111-0.904,0.265
	c-0.297,0.156-0.45,0.369-0.459,0.64l1.542,22.053c0.058,0.833,0.165,1.351,0.318,1.556c0.154,0.205,0.623,0.32,1.408,0.346
	c0.255,0.037,0.494,0.06,0.718,0.071c0.224,0.011,0.489,0.005,0.795-0.015l1.669-0.118l0.146,2.093l-16.857,1.179l-0.146-2.092
	c1.196-0.083,2.413-0.277,3.649-0.578c0.167-0.012,0.329-0.105,0.484-0.277c0.156-0.172,0.255-0.354,0.297-0.546
	c0.042-0.193,0.066-0.463,0.069-0.815c0.003-0.35-0.001-0.606-0.012-0.767l-1.39-19.88l-0.045-0.644
	c-0.013-0.189-0.026-0.376-0.039-0.563c-0.019-0.269-0.032-0.457-0.04-0.565c-0.015-0.213-0.146-0.38-0.392-0.498
	c-0.252-0.118-0.612-0.16-1.092-0.126c-2.1,0.148-3.752,1.314-4.948,3.5C264.855,497.409,264.308,499.389,264.076,501.752z
	 M248.691,529.251c0.126,0.797-0.055,1.519-0.546,2.17c-0.49,0.649-1.148,1.039-1.974,1.17c-0.799,0.126-1.526-0.052-2.181-0.533
	c-0.656-0.481-1.044-1.107-1.166-1.879c-0.122-0.77,0.056-1.472,0.535-2.105c0.479-0.634,1.117-1.014,1.915-1.142
	c0.799-0.126,1.537,0.036,2.216,0.487C248.168,527.87,248.569,528.48,248.691,529.251z M235.398,493.452l-2.644,0.42l3.835-7.879
	l4.461-0.705l6.164,6.293l-2.727,0.432l-5.15-3.105L235.398,493.452z M257.867,521.155l-27.599,6.881l-0.527-2.114l0.263,0.018
	l1.542-0.384c0.649-0.163,1.171-0.376,1.565-0.64c0.394-0.265,0.593-0.619,0.597-1.064c0.027-0.118,0.003-0.334-0.075-0.647
	l-5.27-21.138c-0.065-0.261-0.131-0.41-0.198-0.45c-0.226-0.331-0.549-0.473-0.968-0.424c-0.486,0.011-0.963,0.06-1.429,0.149
	c-0.467,0.087-0.997,0.206-1.592,0.355l-0.447,0.111l-0.507-2.036l27.355-6.82l2.782,10.116l-2.043,0.51
	c-1.648-2.804-3.267-4.605-4.853-5.4c-1.814-0.906-4.3-0.965-7.452-0.18c-0.71,0.178-1.267,0.338-1.676,0.481
	c-0.416,0.145-0.801,0.358-1.161,0.643c-0.315,0.495-0.474,0.839-0.482,1.035c-0.009,0.197,0.011,0.476,0.057,0.838
	c0.047,0.362,0.123,0.752,0.228,1.17l1.835,7.358l0.77-0.108c1.745-0.435,2.988-1.272,3.728-2.51
	c0.733-1.236,0.963-2.763,0.69-4.579l2.029-0.506l3.559,13.582l-2.192,0.545c-0.449-1.801-1.363-3.104-2.742-3.91
	c-1.38-0.807-3.043-0.967-4.985-0.483l-0.332,0.082l2.127,8.534l0.098,0.391c0.209,0.835,0.443,1.373,0.704,1.613
	c0.408,0.369,1.046,0.446,1.911,0.23c0.399-0.016,0.765-0.045,1.099-0.088c0.334-0.041,0.718-0.116,1.151-0.224
	c3.058-0.763,5.197-2.037,6.418-3.824c1.098-1.591,1.712-4.024,1.844-7.299l2.068-0.35L257.867,521.155z M228.313,529.076
	l-15.33,5.579l-0.744-2.048l2.516-0.915c0.681-0.249,1.069-0.569,1.164-0.961c0.094-0.391,0.027-0.904-0.203-1.535l-6.954-19.107
	l-0.165-0.455c-0.046-0.126-0.092-0.253-0.138-0.379c-0.117-0.158-0.189-0.275-0.217-0.351c-0.161-0.198-0.269-0.331-0.323-0.396
	c-0.187-0.19-0.42-0.278-0.696-0.262c-0.276,0.015-0.602,0.076-0.978,0.185c-0.376,0.108-0.792,0.231-1.246,0.368l-1.258,0.458
	l-0.718-1.971l15.33-5.579l0.718,1.971l-2.162,0.786c-0.426,0.156-0.755,0.312-0.988,0.468c-0.232,0.156-0.402,0.383-0.502,0.677
	c-0.06,0.079-0.089,0.347-0.073,0.798l0.248,0.682l0.221,0.607l6.899,18.955c0.165,0.455,0.34,0.813,0.525,1.076
	c0.185,0.261,0.457,0.399,0.817,0.41c0.262-0.096,0.481-0.146,0.657-0.153c0.271-0.07,0.573-0.157,0.905-0.264
	c0.332-0.107,0.668-0.223,1.01-0.346l0.943-0.345L228.313,529.076z M170.679,524.515l-0.919-1.885l13.609-6.638l0.923,1.891
	c-0.715,0.379-1.352,0.727-1.911,1.045c-0.559,0.317-0.869,0.7-0.929,1.149l0.066,0.327c0.07,0.145,0.239,0.332,0.507,0.56
	c0.267,0.23,0.412,0.368,0.435,0.417l13.512,12.022l-1.117-16.189c-0.062-0.509-0.199-0.98-0.412-1.416
	c-0.353-0.725-1.019-1.103-1.996-1.135c-0.978-0.033-1.868,0.146-2.67,0.539l-0.15,0.073l-0.919-1.885l10.978-5.354l0.919,1.885
	c-0.952,0.465-1.671,1.218-2.154,2.263c-0.589,1.274-0.837,3.056-0.744,5.344l1.345,23.942l-3.083,1.503L176.043,525.4
	c-0.849-0.723-1.402-1.157-1.658-1.302c-0.635-0.347-1.345-0.405-2.132-0.171L170.679,524.515z"/>
<path fill-rule="evenodd" clip-rule="evenodd" fill="#FFFFFF" d="M194.318,453.535c-81.73-22.695-124.749-88.31-113.598-181.55
	c14.952,4.512,29.747,10.273,43.446,21.048c-0.956-29.779,7.774-62.154,33.243-98.031c17.564,11.472,29.734,27.107,39.167,44.676
	c15.983-59.501,57.946-84.823,93.752-113.57c38.808,10.296,85.138,40.462,110.52,112.045c10.005-18.365,23.115-32.846,38.11-44.971
	c17.492,25.702,34.449,51.935,34.3,95.277c13.212-5.843,26.891-12.623,40.104-17.531c15.935,118.551-60.057,175.386-114.039,183.693
	c-41.645,6.408-66.525,7.261-108.322,6.984C265.047,461.433,224.139,461.816,194.318,453.535"/>
<polygon fill-rule="evenodd" clip-rule="evenodd" fill="#FFF500" points="298.451,47.249 325.361,130.615 412.964,130.447 
	341.993,181.802 369.223,265.064 298.451,213.436 227.679,265.064 254.909,181.802 183.939,130.447 271.541,130.615 "/>
<polygon fill-rule="evenodd" clip-rule="evenodd" fill="#E87817" points="254.91,181.802 227.679,265.064 298.452,167.655 "/>
<polygon fill-rule="evenodd" clip-rule="evenodd" fill="#E87817" points="298.589,213.436 369.516,264.852 298.452,167.654 "/>
<polygon fill-rule="evenodd" clip-rule="evenodd" fill="#E87817" points="325.361,130.615 298.451,47.249 298.451,167.654 "/>
<polygon fill-rule="evenodd" clip-rule="evenodd" fill="#E87817" points="341.925,182.01 413.14,130.994 298.452,167.653 "/>
<polygon fill-rule="evenodd" clip-rule="evenodd" fill="#E87817" points="271.541,130.616 183.939,130.447 298.451,167.655 "/>
<path fill="#992621" d="M266.4,233.259c14.027,12.978,20.092,26.994,20.128,38.499c0.017,5.377-1.271,10.222-3.675,14.193
	c-2.44,4.032-6.017,7.158-10.536,9.029c-4.67,1.934-10.333,2.505-16.757,1.31c-7.5,18.714-10.024,53.763-0.792,89.809
	c5.863,22.891,16.479,46.134,33.585,65.773c-7.548-14.964-12.227-29.289-13.827-42.932c-2.105-17.948,1.122-34.684,10.159-50.095
	c0.592-1.01,1.89-1.348,2.899-0.756c1.009,0.591,1.347,1.889,0.756,2.898c-8.546,14.573-11.592,30.432-9.594,47.471
	c2.014,17.179,9.155,35.588,20.958,55.111c0.606,1.005,0.283,2.311-0.722,2.915c-0.39,0.235-0.823,0.329-1.244,0.299l-0.733,1.605
	c-2.737-1.248-5.426-2.557-8.07-3.922c-33.529-9.514-61.824-22.899-84.727-40.171c-23.773-17.929-41.731-40.038-53.698-66.347
	c-3.914,2.375-8.657,3.583-13.977,3.203c-5.718-0.409-12.102-2.652-18.818-7.267l2.392-3.504c6.057,4.16,11.722,6.177,16.725,6.535
	c4.666,0.334,8.755-0.779,12.03-2.933c3.274-2.153,5.77-5.369,7.247-9.235c1.535-4.018,1.967-8.732,1.036-13.701
	c-1.24-6.616-4.989-14.119-11.15-21.48c-5.669-6.773-13.35-13.388-22.969-19.057l2.142-3.654
	c10.078,5.939,18.132,12.878,24.082,19.988c6.637,7.928,10.694,16.115,12.064,23.421c1.081,5.771,0.567,11.275-1.235,15.993
	c-1.349,3.534-3.423,6.632-6.095,9.082c11.666,26.02,29.319,47.869,52.783,65.565c18.402,13.88,40.383,25.21,65.857,34.002
	c-20.413-13.501-37.537-31.091-51.184-52.747c-18.409-29.215-30.473-65.804-35.737-109.701c-0.609,0.17-1.23,0.312-1.862,0.428
	c-8.045,1.468-17.731-1.567-28.098-11.663l2.957-3.039c9.252,9.011,17.619,11.771,24.394,10.533
	c3.624-0.662,6.832-2.483,9.496-5.104c2.727-2.682,4.886-6.205,6.35-10.196c3.648-9.946,2.933-22.658-4.089-32.512l3.455-2.458
	c7.886,11.066,8.701,25.307,4.621,36.431c-1.674,4.562-4.177,8.622-7.364,11.757c-2.18,2.145-4.679,3.855-7.452,4.996l1.748-0.207
	c5.155,43.508,17.03,79.685,35.17,108.473c16.643,26.411,38.576,46.624,65.449,60.594l0.094,0.026
	c-20.789-21.336-33.298-47.584-39.904-73.376c-9.364-36.557-6.85-72.307,0.736-91.848c-2.853-0.829-5.835-1.99-8.926-3.514
	l1.877-3.803c10.726,5.288,19.784,5.801,26.353,3.08c3.646-1.509,6.535-4.037,8.51-7.302c2.013-3.326,3.092-7.421,3.077-12.001
	c-0.033-10.436-5.688-23.292-18.766-35.392L266.4,233.259z"/>
<path fill="#992621" d="M331.136,232.196c-14.026,12.978-20.091,26.995-20.126,38.499c-0.018,5.376,1.27,10.222,3.674,14.193
	c2.44,4.032,6.017,7.157,10.537,9.03c4.669,1.933,10.333,2.504,16.756,1.31c7.5,18.715,10.026,53.764,0.793,89.81
	c-5.864,22.889-16.479,46.133-33.586,65.771c7.548-14.964,12.228-29.289,13.828-42.931c2.105-17.95-1.121-34.684-10.16-50.096
	c-0.591-1.009-1.889-1.348-2.897-0.756c-1.01,0.592-1.348,1.889-0.756,2.898c8.546,14.573,11.592,30.432,9.594,47.471
	c-2.014,17.18-9.155,35.588-20.959,55.113c-0.604,1.004-0.282,2.309,0.723,2.915c0.388,0.234,0.823,0.329,1.243,0.299l0.733,1.604
	c2.737-1.248,5.428-2.555,8.072-3.921c33.529-9.516,61.823-22.899,84.726-40.172c23.774-17.928,41.731-40.037,53.699-66.347
	c3.913,2.376,8.657,3.583,13.977,3.203c5.716-0.407,12.101-2.652,18.817-7.265l-2.391-3.506c-6.057,4.16-11.721,6.178-16.725,6.535
	c-4.666,0.334-8.754-0.778-12.03-2.933c-3.274-2.153-5.77-5.368-7.248-9.235c-1.534-4.017-1.966-8.732-1.035-13.701
	c1.24-6.616,4.989-14.118,11.149-21.48c5.67-6.772,13.351-13.388,22.97-19.057l-2.144-3.654
	c-10.076,5.94-18.13,12.878-24.082,19.987c-6.636,7.93-10.694,16.116-12.063,23.423c-1.082,5.77-0.567,11.274,1.234,15.993
	c1.349,3.534,3.424,6.631,6.095,9.081c-11.666,26.022-29.318,47.871-52.783,65.566c-18.401,13.878-40.383,25.208-65.857,34.001
	c20.413-13.5,37.538-31.09,51.185-52.748c18.409-29.214,30.472-65.803,35.736-109.699c0.61,0.169,1.23,0.312,1.864,0.426
	c8.045,1.47,17.73-1.565,28.098-11.663l-2.957-3.039c-9.253,9.011-17.619,11.771-24.395,10.533c-3.623-0.662-6.83-2.483-9.495-5.104
	c-2.726-2.682-4.886-6.205-6.351-10.196c-3.648-9.946-2.933-22.658,4.089-32.512l-3.454-2.459
	c-7.887,11.067-8.702,25.308-4.621,36.432c1.673,4.562,4.177,8.623,7.364,11.757c2.181,2.145,4.678,3.855,7.453,4.996l-1.749-0.207
	c-5.156,43.508-17.03,79.685-35.17,108.474c-16.643,26.411-38.578,46.624-65.45,60.592l-0.093,0.026
	c20.788-21.335,33.296-47.583,39.903-73.374c9.364-36.557,6.85-72.308-0.736-91.85c2.853-0.829,5.834-1.989,8.925-3.513
	l-1.876-3.803c-10.727,5.289-19.783,5.801-26.353,3.08c-3.646-1.509-6.535-4.037-8.511-7.302c-2.013-3.326-3.091-7.422-3.077-12
	c0.034-10.436,5.688-23.292,18.766-35.392L331.136,232.196z"/>
<path fill="#FFF500" d="M502.988,148.374l3.023,0.396l1.008,1.244l-8.259,7.081l-1.317-1.387c1.508-2.071,2.48-4.068,2.918-5.991
	c0.566-2.518,0.137-4.657-1.285-6.415c-0.737-0.908-1.483-1.562-2.241-1.962c-0.759-0.4-1.663-0.583-2.714-0.55
	c-1.05,0.033-2.003,0.217-2.859,0.55c-0.336,0.141-1.2,0.563-2.593,1.267c-0.511,0.282-1.123,0.68-1.835,1.191
	c-0.712,0.511-1.37,1.01-1.971,1.498c-1.496,1.211-2.829,2.585-3.998,4.12c-0.61,0.756-1.069,1.47-1.377,2.144
	c-0.306,0.673-0.485,1.465-0.537,2.374c-0.053,0.909,0.06,1.733,0.336,2.473c0.278,0.74,0.721,1.485,1.329,2.235
	c1.455,1.796,3.292,2.795,5.511,2.992c2.041,0.178,4.113-0.323,6.215-1.502l1.031,2.108c-3.102,1.531-5.921,2.032-8.457,1.503
	c-2.536-0.53-4.892-2.138-7.067-4.823c-2.479-3.061-3.504-6.513-3.079-10.357c0.172-1.775,0.718-3.426,1.635-4.953
	c0.917-1.529,2.115-2.89,3.592-4.086c1.535-1.243,3.211-2.151,5.031-2.726c1.818-0.574,3.702-0.751,5.651-0.53
	c3.826,0.434,6.937,2.131,9.337,5.094c0.927,1.145,1.602,2.168,2.026,3.068c0.423,0.9,0.721,2.032,0.893,3.397L502.988,148.374z
	 M493.54,118.772l-5.889-1.805l-1.612-1.729l6.91-0.398c0.767-0.021,1.329,0.013,1.683,0.099c0.621,0.116,1.121,0.378,1.503,0.787
	c0.191,0.204,0.357,0.474,0.5,0.811c0.142,0.336,0.193,0.628,0.15,0.876c0.03,0.179-0.029,0.409-0.179,0.688
	c-0.187,0.313-0.317,0.504-0.39,0.572c-0.312,0.289-0.716,0.424-1.214,0.402C494.646,119.061,494.16,118.96,493.54,118.772z
	 M475.644,112.008l-1.664-1.783l8.002-1.207l2.807,3.011l-1.71,7.953l-1.716-1.839l-0.227-5.521L475.644,112.008z M455.992,135.049
	c-1.323-1.371-2.334-2.939-3.03-4.704c-0.697-1.765-1.001-3.564-0.912-5.398c0.087-1.834,0.51-3.611,1.265-5.329
	c0.756-1.718,1.764-3.185,3.023-4.402c1.456-1.407,3.052-2.462,4.788-3.166c1.735-0.704,3.592-1.004,5.569-0.9
	c1.781,0.046,3.537,0.461,5.268,1.245c1.731,0.784,3.24,1.844,4.528,3.178c1.466,1.517,2.551,3.1,3.258,4.749
	c0.705,1.649,1.032,3.508,0.978,5.574c-0.09,3.902-1.529,7.199-4.316,9.89c-1.349,1.303-2.975,2.317-4.881,3.044
	c-1.904,0.727-3.765,1.031-5.582,0.913c-2.012-0.105-3.809-0.535-5.388-1.288C458.979,137.702,457.457,136.566,455.992,135.049z
	 M475.247,117.092c-1.378-1.426-2.976-2.037-4.795-1.834c-1.482,0.158-3.109,0.847-4.885,2.067
	c-1.274,0.876-2.639,2.018-4.096,3.425c-0.988,0.956-1.93,2.032-2.823,3.231c-0.894,1.198-1.576,2.362-2.051,3.49
	c-1.092,2.539-0.633,4.85,1.379,6.934c1.411,1.462,3.083,1.915,5.012,1.358c1.127-0.31,2.756-1.196,4.89-2.656
	c0.448-0.292,0.977-0.697,1.589-1.216c0.611-0.519,1.159-1.013,1.645-1.482c2.338-2.258,3.953-4.311,4.843-6.16
	C477.336,121.396,477.1,119.01,475.247,117.092z M433.592,84.706l1.062-1.635l12.148,7.889l-1.02,1.572l-0.793-0.424l-0.443-0.288
	c-0.436-0.284-0.811-0.489-1.116-0.613c-0.306-0.124-0.612-0.152-0.923-0.085c-0.139,0.029-0.316,0.137-0.528,0.335
	c-0.213,0.189-0.375,0.368-0.484,0.535l-0.245,0.377l-6.805,10.478l-0.532,0.818c-0.452,0.697-0.818,1.34-1.096,1.933
	c-0.283,0.599-0.484,1.213-0.608,1.848c-0.129,0.64-0.13,1.19-0.008,1.656c0.122,0.466,0.392,1.03,0.808,1.695
	c0.778,1.042,1.657,1.881,2.637,2.518c0.938,0.608,1.941,1.022,3.012,1.24c1.07,0.219,2.071,0.123,3.004-0.285
	c0.837-0.262,1.539-0.692,2.109-1.29c0.572-0.599,1.183-1.401,1.836-2.408l5.637-8.68c0.695-1.07,1.117-1.883,1.267-2.442
	c0.263-0.963,0.038-1.808-0.67-2.537c-0.138-0.208-0.355-0.432-0.655-0.671c-0.299-0.239-0.581-0.459-0.845-0.66l1.062-1.635
	l9.079,5.895l-1.062,1.636c-1.385-0.9-2.596-1.135-3.633-0.705c-0.835,0.352-1.723,1.252-2.662,2.698l-5.799,8.932
	c-0.423,0.65-0.794,1.176-1.117,1.578c-0.321,0.402-0.744,0.82-1.269,1.254c-0.924,0.771-1.952,1.326-3.082,1.666
	c-1.129,0.339-2.278,0.429-3.445,0.266c-0.934-0.1-1.915-0.386-2.941-0.859c-1.027-0.473-2.04-1.034-3.042-1.685
	c-1.236-0.802-2.345-1.686-3.324-2.65c-1.215-1.207-2.034-2.35-2.455-3.428c-0.559-1.377-0.726-2.685-0.498-3.922
	c0.228-1.238,0.771-2.518,1.63-3.838l8.332-12.832c0.314-0.483,0.327-0.922,0.038-1.317c-0.194-0.215-0.567-0.525-1.123-0.93
	C434.478,85.303,433.996,84.969,433.592,84.706z M413.638,94.681c0.372-0.251,0.726-0.576,1.064-0.975
	c0.338-0.399,0.622-0.806,0.852-1.222c0.25-0.347,0.678-0.96,1.282-1.841c0.603-0.88,0.977-1.451,1.124-1.713
	c1.066-1.924,1.835-3.571,2.302-4.941c0.673-2,0.879-3.786,0.618-5.36c-0.119-0.781-0.425-1.473-0.92-2.075
	c-0.493-0.602-1.118-1.113-1.874-1.532c-1.844-1.023-3.678-1.096-5.5-0.219c-2.181,1.05-4.282,3.401-6.305,7.052
	c-0.146,0.262-0.342,0.669-0.588,1.217c-0.247,0.55-0.443,0.956-0.588,1.218l-0.897,2.247c-0.231,0.73-0.461,1.459-0.692,2.19
	c0.763-1.007,1.797-1.577,3.105-1.709c1.308-0.133,2.562,0.134,3.762,0.799c1.311,0.727,2.257,1.694,2.837,2.901
	C413.799,91.927,413.939,93.248,413.638,94.681z M416.342,104.584l0.109-0.197l1.734,0.961l-0.219,0.394
	c-0.872,1.574-2.096,2.525-3.672,2.852c-1.576,0.327-3.187,0.035-4.83-0.876c-1.712-0.949-2.77-2.172-3.175-3.668
	c-0.406-1.496-0.167-3.043,0.719-4.639l0.394-0.554c-0.807-0.275-1.576-0.616-2.309-1.023c-1.801-0.998-3.273-2.222-4.416-3.67
	c-1.144-1.449-1.969-3.157-2.476-5.124c-0.484-1.697-0.615-3.464-0.397-5.301c0.219-1.837,0.759-3.532,1.619-5.083
	c0.983-1.771,2.194-3.236,3.635-4.395c1.441-1.159,3.123-1.978,5.044-2.456c1.717-0.477,3.53-0.602,5.437-0.374
	c1.907,0.229,3.661,0.786,5.261,1.673c1.689,0.936,3.15,2.153,4.382,3.651c1.233,1.498,2.1,3.143,2.603,4.937
	c0.502,1.793,0.666,3.62,0.491,5.482c-0.175,1.861-0.699,3.579-1.571,5.153c-1.188,2.143-2.805,3.883-4.855,5.22
	c-2.048,1.337-4.292,2.058-6.733,2.163c-0.224,1.191-0.355,2.162-0.394,2.911c-0.038,1.065,0.057,2.047,0.286,2.946l0.558,0.566
	c0.525,0.205,1.055,0.114,1.59-0.276C415.494,105.615,415.889,105.191,416.342,104.584z M409.037,89.301
	c-0.999-0.554-1.944-0.671-2.834-0.349c-0.891,0.321-1.62,0.995-2.19,2.024c-0.545,0.984-0.597,1.969-0.157,2.957
	c0.41,0.885,1.138,1.617,2.182,2.196c0.423,0.234,0.843,0.431,1.262,0.593c0.42,0.161,0.783,0.226,1.09,0.196
	c0.092-0.006,0.25-0.176,0.477-0.507c0.228-0.331,0.414-0.628,0.559-0.89c0.339-0.613,0.622-1.228,0.849-1.846
	c0.226-0.617,0.325-1.163,0.297-1.636c-0.022-0.641-0.145-1.181-0.366-1.618C409.982,89.982,409.594,89.61,409.037,89.301z
	 M386.547,48.355l-2.168,0.568c-0.407,0.064-0.76,0.176-1.06,0.332c-0.306,0.154-0.529,0.393-0.673,0.714l-0.256,0.705l-1.039-0.378
	c0.145-0.4,0.252-0.693,0.32-0.881l0.396-0.734c0.067-0.109,0.116-0.17,0.148-0.185l0.156-0.183c0.809-0.61,1.397-1.074,1.764-1.393
	c0.689-0.574,1.138-1.156,1.351-1.742c0.223-0.611,0.257-1.151,0.103-1.619c-0.155-0.468-0.577-0.829-1.269-1.081
	c-0.239-0.087-0.515-0.107-0.83-0.062c-0.024-0.009-0.074,0-0.15,0.025c-0.078,0.025-0.13,0.04-0.159,0.043
	c-0.027,0.003-0.075,0.059-0.142,0.167c0.189,0.228,0.324,0.411,0.41,0.548c0.246,0.436,0.306,0.83,0.178,1.183
	c-0.163,0.446-0.45,0.754-0.864,0.923c-0.411,0.169-0.857,0.166-1.336-0.007c-0.548-0.2-0.935-0.513-1.158-0.94
	c-0.223-0.427-0.241-0.9-0.053-1.416c0.335-0.917,1.042-1.411,2.122-1.483c1.082-0.073,2.111,0.07,3.09,0.426
	c0.669,0.243,1.209,0.487,1.621,0.729c0.412,0.243,0.792,0.574,1.139,0.993c0.347,0.419,0.576,0.888,0.685,1.407
	c0.108,0.518,0.082,1.001-0.081,1.447C388.406,47.515,387.657,48.147,386.547,48.355z M370.048,50.371l-2.293-0.834l6.582-4.708
	l3.868,1.407l2.086,7.863l-2.362-0.86l-2.71-4.817L370.048,50.371z M363.292,80.165c-1.848-0.461-3.537-1.256-5.063-2.383
	c-1.526-1.128-2.737-2.492-3.634-4.095c-0.897-1.602-1.481-3.332-1.75-5.19c-0.271-1.858-0.194-3.636,0.23-5.334
	c0.489-1.965,1.284-3.706,2.382-5.223c1.099-1.517,2.514-2.755,4.246-3.715c1.535-0.905,3.244-1.484,5.127-1.736
	c1.883-0.252,3.724-0.153,5.525,0.295c2.045,0.511,3.806,1.278,5.279,2.302c1.474,1.025,2.734,2.427,3.783,4.209
	c1.991,3.357,2.518,6.915,1.58,10.675c-0.454,1.819-1.295,3.542-2.525,5.167c-1.231,1.626-2.647,2.87-4.251,3.733
	c-1.762,0.977-3.512,1.565-5.251,1.763C367.231,80.832,365.339,80.675,363.292,80.165z M370.105,54.733
	c-1.924-0.479-3.603-0.151-5.038,0.985c-1.172,0.919-2.188,2.367-3.048,4.342c-0.615,1.418-1.168,3.11-1.657,5.075
	c-0.334,1.334-0.561,2.746-0.684,4.236c-0.123,1.49-0.086,2.838,0.111,4.047c0.418,2.732,2.033,4.449,4.844,5.15
	c1.973,0.491,3.63-0.01,4.971-1.505c0.79-0.86,1.704-2.475,2.74-4.844c0.226-0.485,0.459-1.109,0.703-1.874
	c0.243-0.763,0.446-1.472,0.61-2.127c0.786-3.154,1.066-5.75,0.842-7.79C374.159,57.276,372.693,55.378,370.105,54.733z
	 M326.492,55.054l-1.814-0.32l2.358-9.865l24.775,4.368l-1.158,10.077l-1.877-0.331c0.058-2.224-0.241-4.117-0.894-5.679
	c-0.868-2.108-2.264-3.331-4.19-3.671c-0.276-0.049-0.562-0.036-0.859,0.039c-0.298,0.074-0.48,0.233-0.548,0.474l-3.57,20.238
	c-0.134,0.764-0.156,1.254-0.066,1.474c0.09,0.219,0.48,0.427,1.168,0.625c0.216,0.089,0.423,0.163,0.618,0.223
	c0.197,0.059,0.432,0.114,0.707,0.163l1.501,0.265l-0.338,1.92L327.14,72.38l0.338-1.92c1.076,0.19,2.194,0.285,3.355,0.287
	c0.15,0.027,0.314-0.021,0.491-0.142c0.175-0.122,0.304-0.264,0.384-0.427c0.081-0.163,0.161-0.403,0.243-0.719
	c0.081-0.315,0.135-0.547,0.161-0.695l3.217-18.244l0.104-0.591c0.03-0.172,0.06-0.345,0.09-0.517
	c0.044-0.246,0.074-0.418,0.092-0.517c0.034-0.197-0.044-0.376-0.234-0.537c-0.198-0.161-0.506-0.28-0.938-0.355
	c-1.889-0.333-3.609,0.354-5.156,2.061C328.152,51.31,327.226,52.975,326.492,55.054z M262.139,73.633l-10.842,1.717l-0.317-2
	c1.706-0.271,2.777-0.744,3.21-1.42c0.433-0.676,0.516-1.854,0.251-3.533l-2.604-16.445c-1.148-1.235-2.588-1.716-4.32-1.442
	l-0.305-1.926l9.487-1.503l17.38,14.712l-1.701-10.741c-0.25-1.581-0.729-2.656-1.437-3.227c-0.708-0.572-1.866-0.73-3.471-0.476
	l-0.305-1.926l10.691-1.692l0.306,1.926c-1.446,0.457-2.363,0.918-2.752,1.385c-0.39,0.467-0.604,1.019-0.644,1.659
	c-0.041,0.638-0.041,1.164-0.001,1.576c0.039,0.411,0.104,0.901,0.194,1.468l0.064,0.408l3.05,19.26l-2.334,0.37l-21.066-18.001
	l2.183,13.778c0.265,1.679,0.715,2.81,1.347,3.393c0.757,0.716,1.963,0.943,3.62,0.68L262.139,73.633z M238.517,83.524
	c0.169,0.731,0.053,1.412-0.35,2.043c-0.401,0.632-0.973,1.034-1.717,1.205c-0.718,0.165-1.391,0.045-2.02-0.362
	c-0.628-0.407-1.024-0.963-1.187-1.669c-0.163-0.707-0.049-1.368,0.345-1.985c0.392-0.617,0.947-1.008,1.665-1.174
	c0.718-0.165,1.401-0.06,2.048,0.316C237.949,82.276,238.354,82.818,238.517,83.524z M224.003,51.159l-2.377,0.549l2.955-7.533
	l4.011-0.926l6.033,5.459l-2.451,0.566l-4.895-2.566L224.003,51.159z M225.544,70.226l7.471-1.862l-5.893-8.193L225.544,70.226z
	 M222.461,73.931l3.532-21.441l2.811-0.701l14.928,19.853c0.373,0.551,0.756,1.087,1.148,1.608c0.539,0.587,1.449,0.721,2.732,0.401
	l0.463,1.856l-12.501,3.116l-0.49-1.965l0.915-0.112c0.493-0.122,0.865-0.26,1.115-0.413c0.249-0.152,0.42-0.311,0.51-0.475
	c0.088-0.17,0.103-0.374,0.042-0.616c-0.03-0.122-0.073-0.24-0.127-0.355c-0.179-0.297-0.295-0.5-0.35-0.615l-2.65-3.693
	l-9.394,2.342c-0.106,0.626-0.202,1.287-0.287,1.997c-0.086,0.704-0.061,1.33,0.072,1.864c0.219,0.879,0.708,1.446,1.464,1.696
	c0.757,0.256,1.592,0.267,2.504,0.039l0.352-0.165l0.48,1.928l-10.651,2.656l-0.49-1.965c1.252-0.442,2.195-1.385,2.83-2.832
	C221.804,77.072,222.151,75.735,222.461,73.931z M180.994,71.027l13.789-6.14l2.577-1.146c1.207-0.538,2.287-0.909,3.238-1.114
	c0.952-0.204,1.982-0.218,3.085-0.053c0.958,0.154,1.877,0.56,2.758,1.228c0.881,0.668,1.526,1.462,1.936,2.381
	c0.89,1.999,0.806,3.903-0.246,5.726c-0.943,1.631-2.449,2.903-4.514,3.823c1.591-0.298,2.997-0.219,4.215,0.237
	c1.219,0.457,2.328,1.339,3.326,2.645l1.502,1.876c0.34,0.451,0.632,0.827,0.878,1.128c0.245,0.301,0.52,0.576,0.825,0.824
	l0.532,0.256l0.548-0.08c0.534-0.238,0.759-0.858,0.674-1.86c-0.073-0.789-0.262-1.525-0.567-2.21l1.741-0.776
	c0.305,0.686,0.54,1.401,0.706,2.149c0.364,1.507,0.136,2.868-0.686,4.082c-0.736,1.094-1.871,1.982-3.404,2.664
	c-1.578,0.703-3.138,0.761-4.676,0.18c-0.645-0.261-1.181-0.637-1.611-1.137c-0.431-0.498-0.875-1.136-1.336-1.922l-1.06-2.005
	c-0.757-1.702-1.496-2.83-2.219-3.391c-1.007-0.763-2.263-0.805-3.772-0.133c-0.465,0.206-0.848,0.377-1.15,0.511l-0.383,0.17
	l-1.114,0.496l4.026,9.044c0.279,0.315,0.507,0.5,0.686,0.557c0.178,0.057,0.444,0.028,0.796-0.088
	c0.351-0.116,0.681-0.235,0.988-0.358c0.307-0.123,0.611-0.252,0.913-0.386l0.906-0.402l0.824,1.85l-13.72,6.108l-0.823-1.85
	l1.95-0.868c0.789-0.351,1.215-0.705,1.28-1.062c0.061-0.362-0.09-0.952-0.459-1.78l-7.585-17.037
	c-0.203-0.457-0.383-0.815-0.535-1.062c-0.152-0.247-0.311-0.402-0.478-0.465c-0.303-0.118-0.582-0.151-0.839-0.105
	c-0.258,0.046-0.572,0.152-0.943,0.317l-0.732,0.326l-1.114,0.496L180.994,71.027z M192.599,70.477l3.194,7.177l2.756-1.308
	c1.811-0.807,2.976-1.749,3.494-2.835c0.58-1.196,0.465-2.705-0.343-4.521c-0.717-1.61-1.621-2.562-2.709-2.851
	c-1.088-0.288-2.479-0.053-4.173,0.701c-0.557,0.248-1.025,0.477-1.405,0.688c-0.379,0.21-0.697,0.447-0.955,0.712
	c-0.255,0.271-0.348,0.593-0.277,0.972C192.255,69.597,192.393,70.015,192.599,70.477z M160.461,95.647l-1.527,1.03l-5.156-8.735
	l20.856-14.067l6.167,8.053l-1.58,1.066c-1.504-1.639-3.034-2.794-4.589-3.464c-2.088-0.914-3.942-0.824-5.565,0.271
	c-0.231,0.156-0.428,0.364-0.59,0.625c-0.162,0.26-0.183,0.5-0.064,0.722l11.491,17.037c0.433,0.643,0.759,1.011,0.976,1.106
	c0.217,0.094,0.642-0.026,1.273-0.362c0.217-0.087,0.418-0.176,0.6-0.269c0.183-0.092,0.39-0.217,0.621-0.374l1.264-0.852
	l1.09,1.617l-12.766,8.61l-1.09-1.616c0.906-0.611,1.777-1.319,2.613-2.124c0.126-0.085,0.211-0.232,0.254-0.442
	c0.042-0.21,0.036-0.401-0.02-0.575c-0.056-0.173-0.164-0.402-0.325-0.686c-0.161-0.284-0.283-0.487-0.366-0.612l-10.359-15.358
	l-0.336-0.497c-0.098-0.145-0.196-0.29-0.294-0.436c-0.139-0.207-0.238-0.352-0.293-0.435c-0.112-0.166-0.293-0.24-0.541-0.223
	c-0.254,0.02-0.558,0.15-0.921,0.395c-1.591,1.073-2.352,2.762-2.278,5.064C159.054,91.801,159.545,93.642,160.461,95.647z
	 M126.598,121.959l-1.369,1.233l-6.322-7.932l18.695-16.833l7.228,7.117l-1.416,1.275c-1.718-1.414-3.393-2.344-5.026-2.791
	c-2.194-0.614-4.018-0.267-5.473,1.043c-0.208,0.187-0.373,0.42-0.498,0.701c-0.124,0.28-0.112,0.521,0.036,0.724l13.751,15.272
	c0.518,0.576,0.891,0.896,1.12,0.959c0.228,0.064,0.632-0.114,1.211-0.535c0.203-0.116,0.389-0.232,0.557-0.35
	c0.167-0.118,0.355-0.27,0.563-0.457l1.133-1.021l1.304,1.449l-11.443,10.304l-1.305-1.449c0.812-0.731,1.576-1.553,2.292-2.467
	c0.114-0.102,0.176-0.26,0.189-0.474c0.013-0.213-0.021-0.402-0.1-0.566c-0.079-0.164-0.218-0.375-0.416-0.634
	c-0.199-0.258-0.349-0.444-0.448-0.555l-12.396-13.767l-0.401-0.446c-0.117-0.13-0.234-0.26-0.351-0.39
	c-0.167-0.185-0.284-0.316-0.351-0.39c-0.133-0.149-0.323-0.198-0.567-0.146c-0.249,0.055-0.531,0.226-0.857,0.52
	c-1.426,1.284-1.944,3.063-1.55,5.332C124.67,118.346,125.411,120.1,126.598,121.959z M131.364,150.173
	c0.558,0.502,0.853,1.126,0.886,1.874c0.033,0.748-0.205,1.405-0.716,1.971c-0.493,0.548-1.114,0.835-1.861,0.863
	c-0.748,0.027-1.391-0.202-1.93-0.686c-0.538-0.485-0.824-1.093-0.856-1.823c-0.032-0.73,0.198-1.369,0.69-1.917
	c0.494-0.548,1.114-0.853,1.86-0.916C130.183,149.476,130.826,149.687,131.364,150.173z M95.554,129.417l1.224-1.359
	c0.962,0.388,1.82,0.407,2.571,0.058c0.577-0.267,1.282-0.863,2.116-1.788c0.816-0.906,1.326-1.66,1.531-2.262
	c0.286-0.803,0.186-1.663-0.301-2.58l1.173-1.303c1.139,1.538,1.753,2.929,1.844,4.173c0.102,1.494-0.459,2.92-1.684,4.28
	c-1.241,1.378-2.592,2.094-4.052,2.146C98.694,130.826,97.22,130.37,95.554,129.417z M113.599,146.684l5.251-5.632l-9.404-3.661
	L113.599,146.684z M113.032,151.471l-8.715-19.906l1.976-2.118l23.332,8.52c0.613,0.258,1.226,0.5,1.838,0.723
	c0.773,0.199,1.609-0.185,2.509-1.152l1.399,1.304l-8.786,9.422l-1.481-1.381l0.706-0.592c0.347-0.372,0.583-0.69,0.71-0.954
	c0.127-0.264,0.183-0.489,0.17-0.676c-0.018-0.191-0.117-0.37-0.299-0.54c-0.092-0.085-0.192-0.161-0.301-0.228
	c-0.312-0.151-0.52-0.258-0.628-0.325l-4.233-1.654l-6.603,7.081c0.252,0.582,0.531,1.189,0.847,1.831
	c0.311,0.638,0.672,1.148,1.075,1.524c0.662,0.618,1.382,0.829,2.152,0.626c0.775-0.199,1.479-0.644,2.121-1.331l0.205-0.33
	l1.453,1.356l-7.487,8.028l-1.481-1.381c0.81-1.052,1.087-2.357,0.831-3.916C114.191,154.462,113.755,153.152,113.032,151.471z
	 M91.618,184.602l-13.726-9.259c-0.311-0.21-0.593-0.361-0.852-0.459c-0.253-0.094-0.489-0.07-0.703,0.069
	c-0.252,0.106-0.539,0.364-0.862,0.775c-0.319,0.405-0.615,0.789-0.88,1.138l-0.565,0.837l-1.617-1.09l6.938-10.286l16.977,4.248
	l-10.444-13.933l6.863-10.175l1.616,1.09l-0.895,1.327c-0.242,0.358-0.429,0.714-0.563,1.068c-0.134,0.354-0.144,0.693-0.029,1.015
	c0.2,0.196,0.441,0.42,0.724,0.671c0.282,0.252,0.454,0.399,0.517,0.441l0.87,0.587l14.985,10.108
	c0.249,0.167,0.5,0.299,0.753,0.392c0.253,0.094,0.565,0.013,0.933-0.243c0.369-0.257,0.696-0.596,0.98-1.017l0.383-0.57
	l0.554-0.821l1.617,1.09l-8.057,11.945l-1.617-1.09l1.237-1.833c0.144-0.393,0.238-0.667,0.282-0.821
	c0.04-0.372-0.025-0.668-0.193-0.888c-0.173-0.224-0.485-0.489-0.941-0.796l-17.032-11.488l15.62,20.834l-1.066,1.58l-25.006-6.384
	l13.947,9.5c1.472,0.993,2.643,1.537,3.512,1.633c1.239,0.13,2.306-0.468,3.201-1.795l0.213-0.316l1.617,1.09l-6.054,8.974
	l-1.616-1.09c0.909-1.349,1.192-2.507,0.844-3.477C93.812,186.389,92.986,185.525,91.618,184.602z"/>
</svg>
