<svg width="160" height="40" viewBox="0 0 160 40" fill="none" xmlns="http://www.w3.org/2000/svg">
<path d="M45.9406 29.0442V25.8524H43.7328V22.4404H39.7039V25.8524H37.692V29.0442H39.7039V34.9235C39.7039 36.7886 41.2411 39.5545 44.57 39.5545L45.9357 39.5105L45.9393 35.9467C45.7972 35.9609 45.7091 35.968 45.68 35.968C44.5198 35.968 43.7316 35.0183 43.7316 34.0196V29.0459L45.9406 29.0442Z" fill="#005791"/>
<path d="M33.0757 31.2077C32.8015 29.651 31.4358 28.53 29.884 28.53C28.4056 28.53 26.9713 29.5629 26.6922 31.2077H33.0757ZM36.9382 33.9491H26.6237C26.6923 35.447 28.014 36.9548 29.884 36.9548C30.8582 36.9548 32.0771 36.4457 32.7429 35.2561H36.5759C36.1451 36.5142 35.1612 37.8017 34.0303 38.6388C32.8261 39.5297 31.4162 39.9605 29.9329 39.9605C27.9405 39.9605 26.2468 39.2556 24.8418 37.8408C23.4319 36.4359 22.7613 34.5218 22.7613 32.6958C22.7613 30.8405 23.4123 29.0439 24.7928 27.6145C26.1929 26.1606 27.9895 25.4214 29.9036 25.4214C31.8029 25.4214 33.6387 26.1606 35.0192 27.6145C36.3703 29.0439 37.1046 30.865 37.0459 32.877C37.0352 33.1853 36.9918 33.6651 36.9382 33.9491Z" fill="#005791"/>
<path d="M17.1952 29.4751C17.1952 27.3065 18.9624 25.8477 20.8227 25.8477H21.2192V39.5546H17.205L17.1952 29.4751Z" fill="#005791"/>
<path d="M47.5659 29.4751C47.5659 27.3065 49.338 25.8477 51.1934 25.8477H51.5899V39.5546H47.5806L47.5659 29.4751Z" fill="#005791"/>
<path d="M62.2079 39.5542V31.2664C62.2079 30.1894 61.3806 29.0635 60.0148 29.0635C58.3308 29.0635 57.7238 30.4147 57.7238 31.3301V39.5542H53.6313V25.8767H57.4496V27.3305H57.5036C58.2477 26.327 59.6625 25.4165 61.3563 25.4165C64.411 25.4165 66.3005 27.918 66.3005 30.3216V39.5542H62.2079Z" fill="#005791"/>
<path d="M94.0276 35.1779C93.401 35.8436 92.6129 36.1766 91.6632 36.1766C90.7428 36.1766 89.9645 35.8387 89.3232 35.1681C88.6966 34.5024 88.3833 33.6946 88.3833 32.74C88.3833 31.7462 88.682 30.9189 89.2889 30.2532C89.9057 29.558 90.689 29.2154 91.6387 29.2154C92.5933 29.2154 93.3912 29.5483 94.0178 30.1993C94.6395 30.8602 94.9577 31.6875 94.9577 32.691C94.9577 33.6848 94.6494 34.517 94.0276 35.1779ZM95.0116 25.862V27.316H94.9625C94.5807 26.6796 94.0129 26.1851 93.2541 25.8474C92.5736 25.5486 91.8295 25.3921 91.0218 25.3921C89.0392 25.3921 87.3993 26.1117 86.1118 27.546C84.8684 28.9363 84.2466 30.6448 84.2466 32.691C84.2466 34.7667 84.8586 36.4947 86.0775 37.8703C87.3405 39.29 88.9903 39.9998 91.0218 39.9998C91.8393 39.9998 92.5834 39.8531 93.2639 39.5543C94.0569 39.2115 94.6199 38.7074 94.9625 38.0515H95.0116V39.5299H99.0405V25.862H95.0116Z" fill="#005791"/>
<path fill-rule="evenodd" clip-rule="evenodd" d="M139.265 11.2984L148.63 11.2984V19.5422C152.111 20.0758 155.405 21.192 158.406 22.783C159.38 20.722 159.929 18.4163 159.929 15.9784C159.929 7.15213 152.767 0 143.945 0C135.119 0 127.972 7.15213 127.972 15.9784C127.972 18.4065 128.515 20.7122 129.485 22.7732C132.49 21.1821 135.775 20.0709 139.265 19.5422V11.2984Z" fill="#005791"/>
<path fill-rule="evenodd" clip-rule="evenodd" d="M143.945 31.9273C149.531 31.9273 154.446 29.0586 157.31 24.7116C153.32 22.6017 148.762 21.4023 143.931 21.4023C139.109 21.4023 134.566 22.5968 130.581 24.7067C133.44 29.0538 138.35 31.9273 143.945 31.9273Z" fill="#D71147"/>
<path d="M109.658 39.5542V31.2664C109.658 30.1894 108.831 29.0635 107.465 29.0635C105.781 29.0635 105.174 30.4147 105.174 31.3301V39.5542H101.082V25.8767H104.9V27.3305H104.954C105.693 26.327 107.113 25.4165 108.807 25.4165C111.861 25.4165 113.746 27.918 113.746 30.3216V39.5542H109.658Z" fill="#005791"/>
<path d="M9.0934 39.5448C10.1312 39.5448 11.5509 38.9819 12.2118 37.2734C13.9104 32.8823 19.0946 19.7383 19.0946 19.7383H14.9483L10.0138 32.3095L5.08414 19.7383H0.0712852L7.85001 39.5448H9.0934Z" fill="#005791"/>
<path d="M76.7324 35.8925H72.9434V31.1832H76.659C78.3479 31.1832 79.0577 32.6077 79.0577 33.4595C79.0577 34.9379 77.9073 35.8925 76.7324 35.8925ZM72.963 23.4192H75.9394C77.1877 23.4192 78.0982 24.359 78.0982 25.4703C78.0982 26.7284 76.9821 27.5264 75.9394 27.5264H72.963V23.4192ZM79.8899 28.9215C82.5236 27.4872 82.362 25.0347 82.0928 23.6835C81.755 21.9898 79.9584 19.7379 75.9051 19.7575H68.3516V39.5542H76.0422C81.0109 39.5542 83.2775 36.6709 83.2138 33.5525C83.1854 32.1574 82.7928 29.8321 79.8899 28.9215Z" fill="#005791"/>
<path d="M123.698 31.9371L129.485 25.8571H124.359L119.963 30.7329L119.977 23.3213C119.977 21.1527 118.2 19.6938 116.35 19.6938H115.787V39.5298H119.963V33.3763L124.104 39.5298H129.484L123.698 31.9371Z" fill="#005791"/>
</svg>
