<svg width="126" height="40" viewBox="0 0 126 40" fill="none" xmlns="http://www.w3.org/2000/svg">
<path d="M101.703 22.0977C102.056 20.565 102.908 19.0872 103.869 17.8591C104.217 17.4156 105.216 16.713 105.16 16.1016C105.098 15.4083 104.051 14.5823 103.651 14.0341C102.778 12.8403 102.135 11.435 101.768 10.0028C101.652 9.55203 101.253 8.51571 101.509 8.08357C101.754 7.66904 102.745 7.81309 103.147 7.84107C104.221 7.91465 105.308 8.08046 106.343 8.37892C106.839 8.52193 107.575 8.93438 108.092 8.82868C108.808 8.68256 109.481 7.31565 109.962 6.79853C111.138 5.53215 112.615 4.43055 114.181 3.69684C113.818 2.83669 113.046 2.12578 112.324 1.5558C108.277 -1.64642 101.893 0.326733 100.456 5.3508C99.725 7.90843 100.36 10.7697 101.524 13.1045C101.862 13.7833 102.27 14.46 102.723 15.0683C102.933 15.3502 103.364 15.7233 103.364 16.1026C103.364 16.5347 102.808 17.0187 102.566 17.3431C101.836 18.3193 101.247 19.4064 100.818 20.5474C100.704 20.8479 100.352 21.5091 100.575 21.8148C100.769 22.079 101.406 22.0593 101.703 22.0977ZM102.013 8.45146C102.05 10.235 104.132 9.7054 105.519 10.0515C106.398 10.2712 108.053 11.3998 108.9 11.206C109.518 11.0651 110.268 9.26808 110.684 8.76235C112.056 7.09388 113.695 6.11042 115.522 5.04094C115.874 6.33012 116.391 7.5167 116.536 8.86599C116.625 9.67535 116.397 11.0101 116.719 11.7376C116.878 12.0931 117.361 12.1501 117.689 12.263C118.512 12.5501 119.305 12.8931 120.06 13.3263C120.938 13.8289 121.782 14.4072 122.535 15.086C122.781 15.3077 123.17 15.8622 123.558 15.7565C124.007 15.6342 124.291 14.829 124.463 14.4486C125.114 12.9988 125.452 11.3759 125.23 9.7966C124.655 5.699 120.966 3.11546 116.968 3.3963C114.348 3.58077 112.028 5.42334 110.265 7.21202C109.746 7.73951 109.018 9.30435 108.345 9.53234C107.886 9.68779 106.918 9.08154 106.45 8.95718C104.96 8.56234 103.545 8.45146 102.013 8.45146ZM114.077 6.28037C114.334 8.02657 114.841 9.53648 114.798 11.3459C114.785 11.8288 114.369 12.9532 114.757 13.3253C115.204 13.7512 116.47 13.7833 117.068 13.9844C118.444 14.4486 119.751 15.173 120.883 16.0819C121.261 16.3855 122.321 17.1099 122.321 17.6436C122.321 18.0747 121.402 18.5441 121.09 18.7535C120.193 19.3535 119.215 19.8592 118.203 20.2323C117.753 20.3971 116.955 20.4821 116.615 20.8303C116.2 21.2552 116.486 22.4708 116.42 23.0293C116.181 25.0564 115.144 26.7798 114.8 28.7156C116.356 29.2141 118.04 29.4244 119.647 29.0358C125.183 27.699 126.503 21.136 123.53 16.827C122.469 15.2891 120.617 14.0476 118.925 13.2983C118.272 13.0081 116.511 12.7553 116.145 12.1521C115.771 11.5355 116.054 10.1945 116.037 9.48778C116.006 8.23798 115.659 6.926 115.213 5.76636L114.077 6.28037Z" fill="#FFC72F"/>
<path d="M19.2072 23.1309C20.6647 22.4832 21.9434 21.9578 22.9689 20.65C25.2875 17.6965 24.9619 12.6009 22.0943 10.1366C18.1528 6.7478 11.4284 7.93438 6.62671 7.93438H3.01694C2.46183 7.93438 1.84677 7.85562 1.37229 8.20797C0.436765 8.90437 0.851289 11.0319 0.851289 12.0693V34.8123C0.851289 35.9813 0.402653 38.3555 1.05907 39.3503C1.73719 40.3794 4.50654 39.8778 5.59506 39.8778H13.7418C15.8021 39.8778 17.855 39.9701 19.8264 39.2519C21.8256 38.5234 23.5188 37.2248 24.5381 35.3284C27.1058 30.551 24.5205 24.3517 19.2072 23.1309ZM6.41997 12.3802H12.5045C14.022 12.3802 15.5798 12.3449 16.9381 13.1398C19.5917 14.6912 19.1958 19.3411 16.629 20.764C15.3793 21.4562 13.9817 21.3744 12.6078 21.3744H6.41997V12.3802ZM17.454 34.7843C15.9871 35.5201 14.4045 35.432 12.8136 35.432H6.41997V25.301H12.7102C14.3703 25.301 16.0636 25.2606 17.5573 26.1155C20.6926 27.9104 20.7474 33.1324 17.454 34.7843ZM32.752 8.4629C32.3396 7.92402 31.679 7.93438 31.066 7.93438H27.4573V37.087C27.4573 37.7886 27.2568 38.8602 27.7302 39.4426C28.1261 39.9286 28.7505 39.8778 29.3128 39.8778H33.025V10.9324C33.025 10.1915 33.2317 9.0878 32.752 8.4629ZM62.7322 19.6157C62.3145 17.1058 61.3821 14.5917 59.7902 12.5864C56.3179 8.21108 51.3581 7.93438 46.2246 7.93438H39.0061C38.146 7.93438 36.8766 7.68567 36.274 8.46187C35.816 9.0536 36.0155 10.1262 36.0155 10.8288V39.8778H46.328C48.6373 39.8778 50.9735 40.0374 53.2374 39.5006C61.9258 37.4394 64.0036 27.2544 62.7322 19.6157ZM56.5019 29.6442C55.9385 31.4059 54.9864 33.0433 53.4431 34.1128C50.2458 36.3305 45.2653 35.4331 41.5842 35.4331V12.3802C45.2767 12.3802 50.2416 11.5169 53.4431 13.7699C57.947 16.9389 58.0225 24.8813 56.5019 29.6442ZM93.7232 8.25979C93.6095 7.66805 91.7499 7.93438 91.2878 7.93438C89.0353 7.93438 86.2287 7.44835 84.8394 9.69198C83.3054 12.1698 82.6841 15.6166 81.7661 18.3753C79.9706 23.7745 77.9765 29.1281 76.4383 34.6061C75.8346 33.005 75.4728 31.2743 74.926 29.6442C73.3423 24.9248 71.7545 20.2054 70.1822 15.4819C69.6426 13.859 69.0741 12.2455 68.5324 10.6226C68.2657 9.82048 68.092 8.83391 67.3622 8.3116C66.0525 7.37581 63.1384 7.93438 61.5899 7.93438C61.9651 10.4443 63.3017 13.0807 64.1329 15.4808C66.0277 20.9526 67.9442 26.4233 69.7708 31.9179C70.3569 33.6796 70.941 35.4507 71.5881 37.1906C71.9809 38.2477 72.4202 39.2446 73.5522 39.6623C74.9849 40.1898 76.8911 39.8778 78.3993 39.8778C78.851 39.8778 79.7142 40.0426 80.0998 39.7711C80.5463 39.4571 80.7097 38.4094 80.874 37.913C81.4033 36.3212 81.9946 34.7491 82.5239 33.1573C84.5117 27.1788 86.5585 21.192 88.7159 15.2725C89.3609 13.5025 90.1042 11.49 91.5979 10.2547C92.1251 9.82048 93.8886 9.11267 93.7232 8.25979Z" fill="#016B69"/>
<path d="M113.252 26.3352C112.018 25.5621 110.914 24.4325 110.091 23.2335C109.766 22.7588 109.298 21.4562 108.777 21.2303C108.103 20.938 106.432 21.9909 105.724 22.1847C103.676 22.7464 101.808 22.5671 99.7426 22.3039C100.052 20.8033 100.705 19.368 101.496 18.0653C101.82 17.5306 102.684 16.743 102.686 16.1015C102.689 15.3077 101.514 14.118 101.129 13.4133C100.338 11.9687 99.9504 10.3655 99.6403 8.76129C98.5611 8.85663 97.4808 9.57376 96.6497 10.2308C92.6823 13.3615 92.7805 19.4001 96.9588 22.3329C99.232 23.9278 102.119 24.1371 104.795 23.706C105.639 23.5703 107.306 22.6738 108.085 22.8863C108.51 23.0024 108.793 23.7236 109.026 24.0615C109.722 25.0729 110.548 25.9486 111.498 26.7227C111.761 26.9373 112.235 27.443 112.61 27.3798C112.996 27.3145 113.162 26.6471 113.252 26.3352Z" fill="#FFC72F"/>
<path d="M112.84 28.3001L109.379 25.302L107.881 23.5372L105.003 24.2243L99.9504 24.2678C99.9504 26.5239 100.539 28.6898 102.146 30.3499C105.447 33.7573 110.858 32.9034 113.621 29.3333C114.929 27.6441 115.551 25.5373 115.802 23.4408C115.885 22.7413 115.559 21.0013 115.997 20.4873C116.423 19.9878 117.696 19.8707 118.307 19.6469C119.577 19.1826 120.722 18.4344 121.814 17.6509C121.637 17.2758 121.269 16.7524 120.782 16.8364C120.233 16.9307 119.616 17.5214 119.132 17.7981C118.266 18.2914 117.31 18.6489 116.348 18.9038C115.922 19.0168 114.879 19.0292 114.598 19.3816C114.382 19.651 114.53 20.137 114.565 20.4417C114.656 21.2107 114.625 22.0459 114.591 22.819C114.5 24.8502 113.599 26.4824 112.84 28.3001Z" fill="#FFC72F"/>
</svg>
