<svg viewBox="0 0 40 40" fill="none" xmlns="http://www.w3.org/2000/svg">
<path fill-rule="evenodd" clip-rule="evenodd" d="M14.3967 1.48895C11.5913 2.05309 10.5545 3.33384 10.6612 5.16347C10.7984 7.74021 13.6344 12.6497 14.9913 14.8301C17.3546 18.657 20.1601 22.1029 23.2705 25.2895C25.7862 27.7747 27.3719 28.3236 30.0706 24.6491C32.3729 21.615 34.4922 18.6113 36.3066 14.8453C37.0995 13.1986 37.8466 11.3995 38.5022 9.37164C39.2036 7.00836 38.9596 4.91952 36.6421 3.39482C38.8681 4.47736 39.8439 6.47471 39.9811 8.68552C40.1184 10.8201 39.478 13.1376 38.9901 14.8453C37.7856 19.0992 36.2304 23.3836 34.2635 27.2411C32.7846 30.1533 30.8939 33.6601 29.0033 36.2521C24.8257 42.0002 20.8309 40.14 16.1349 36.2521C13.1617 33.782 10.2953 30.6717 7.84053 27.2563C5.35527 23.8258 2.62606 18.7333 1.00988 14.8148C-1.20093 9.46312 0.521977 6.71867 3.25118 4.98051C6.25484 3.07464 10.7527 1.9921 14.3967 1.48895Z" fill="url(#paint0_linear_202_3027)"/>
<path fill-rule="evenodd" clip-rule="evenodd" d="M14.29 13.7017C18.6354 13.0461 29.9334 12.3447 33.8976 14.403C35.2241 15.0892 35.2546 16.0192 35.1326 17.0713C35.529 16.3547 35.9102 15.6076 36.2914 14.8452C37.0842 13.1985 37.8313 11.3994 38.4869 9.37154C39.1883 7.00826 38.9444 4.91943 36.6268 3.39473C35.773 2.93732 34.7819 2.61713 33.8976 2.35793C31.2904 1.59558 28.3935 1.29065 25.4813 1.07719C24.2768 0.985706 23.0265 1.00095 21.7458 1.00095C19.4435 1.00095 16.9125 1.15342 14.3967 1.48886C11.5913 2.05299 10.5545 3.33374 10.6612 5.16338C10.7832 7.35894 12.8568 11.2469 14.3052 13.7017H14.29Z" fill="url(#paint1_linear_202_3027)"/>
<defs>
<linearGradient id="paint0_linear_202_3027" x1="35.1174" y1="25.9603" x2="3.22069" y2="3.62353" gradientUnits="userSpaceOnUse">
<stop stop-color="#006840"/>
<stop offset="0.4" stop-color="#007A48"/>
<stop offset="1" stop-color="#86C440"/>
</linearGradient>
<linearGradient id="paint1_linear_202_3027" x1="15.1133" y1="1.29065" x2="33.9891" y2="14.5098" gradientUnits="userSpaceOnUse">
<stop stop-color="#006840"/>
<stop offset="0.3" stop-color="#007A48"/>
<stop offset="1" stop-color="#86C440"/>
</linearGradient>
</defs>
</svg>
