<svg width="116" height="40" viewBox="0 0 116 40" fill="none" xmlns="http://www.w3.org/2000/svg">
<path fill-rule="evenodd" clip-rule="evenodd" d="M87.5351 0.326172C85.6951 0.702463 85.0152 1.55675 85.0852 2.77715C85.1752 4.49589 87.0351 7.77064 87.9251 9.22495C89.4751 11.7776 91.3151 14.0761 93.3551 16.2016C95.0051 17.8593 96.0451 18.2254 97.8151 15.7745C99.3251 13.7506 100.715 11.7471 101.905 9.23513C102.425 8.13676 102.915 6.9367 103.345 5.58408C103.805 4.00773 103.645 2.61443 102.125 1.59743C103.585 2.3195 104.225 3.65177 104.315 5.12643C104.405 6.55023 103.985 8.09608 103.665 9.23513C102.875 12.0726 101.855 14.9303 100.565 17.5034C99.5951 19.4458 98.3552 21.785 97.1152 23.5139C94.3752 27.348 91.7551 26.1072 88.6751 23.5139C86.7251 21.8663 84.8452 19.7916 83.2352 17.5135C81.6052 15.2253 79.8152 11.8285 78.7552 9.21479C77.3052 5.6451 78.4352 3.81449 80.2252 2.65511C82.1952 1.38386 85.1451 0.661783 87.5351 0.326172Z" fill="url(#paint0_linear_13_12027)"/>
<path fill-rule="evenodd" clip-rule="evenodd" d="M87.4651 8.47228C90.3151 8.03496 97.7251 7.56714 100.325 8.9401C101.195 9.39775 101.215 10.0181 101.135 10.7199C101.395 10.2419 101.645 9.74353 101.895 9.23503C102.415 8.13667 102.905 6.9366 103.335 5.58399C103.795 4.00763 103.635 2.61434 102.115 1.59733C101.555 1.29223 100.905 1.07866 100.325 0.905769C98.6151 0.397267 96.7152 0.193866 94.8052 0.0514858C94.0152 -0.00953441 93.1951 0.000635627 92.3551 0.000635627C90.8451 0.000635627 89.1851 0.102336 87.5351 0.326077C85.6951 0.702368 85.0152 1.55665 85.0852 2.77706C85.1652 4.24154 86.5252 6.8349 87.4752 8.47228H87.4651Z" fill="url(#paint1_linear_13_12027)"/>
<path fill-rule="evenodd" clip-rule="evenodd" d="M80.0252 39.9076C81.5152 39.7245 82.7752 38.9516 83.1952 36.6633C83.4652 35.1989 83.4252 32.8394 83.0252 31.4665C82.8352 30.8257 82.5552 30.2867 82.1452 29.9308C81.4452 29.3409 80.6752 29.229 79.9952 29.2087C78.8452 29.168 78.2252 29.3714 77.3952 30.0528C77.2352 30.185 77.0952 30.2461 77.0952 30.0121L77.0652 25.1305L74.4052 25.1712V39.1652C75.5552 39.9483 78.6952 40.0703 80.0352 39.9076H80.0252ZM8.69516 39.6432C9.25516 39.6432 9.14516 39.694 9.48516 39.216C11.7952 35.9921 13.9852 29.1172 13.9552 25.2831C12.8752 25.2322 11.7952 25.4153 10.7052 25.6797C9.66516 31.975 8.74516 33.6327 7.07516 36.8464C5.40516 33.6327 4.48516 31.975 3.44516 25.6797C2.35516 25.4153 1.26516 25.2322 0.195159 25.2831C0.165159 29.1172 2.35516 35.9921 4.66516 39.216C5.00516 39.694 4.89516 39.6432 5.45516 39.6432H8.70516H8.69516ZM85.1452 29.7274L85.4052 32.1885C86.4552 32.0868 87.3152 31.8021 88.4252 31.7207C90.0852 31.6597 91.1452 31.619 91.0952 32.8496C89.8552 32.8496 88.5952 32.8496 87.3052 32.8598C85.7352 32.8699 84.4352 33.6327 84.6052 36.8667C84.8152 40.7619 89.3552 40.4669 91.4252 38.9109V39.7855H93.8352C93.7752 35.8091 94.0552 31.6393 93.3552 30.5105C92.0152 28.3544 87.6052 29.1477 85.1452 29.7274ZM28.3552 39.3177C28.2652 38.5143 28.1752 37.7109 28.0852 36.9176C26.9952 37.121 25.1252 37.4058 24.0252 37.3651C22.7552 37.3244 22.2852 36.704 22.2852 34.8632C22.6852 35.3311 23.2552 35.6565 23.9652 35.6667C25.6252 35.687 27.1752 35.7175 28.8052 35.6565C28.8752 32.5953 29.1352 29.9206 26.1252 29.2596C24.9052 28.9951 23.2752 28.9951 22.1152 29.3511C20.8452 29.7376 20.2152 30.3478 19.8452 31.6393C19.1652 34.0395 19.3552 37.6092 20.8752 38.9821C22.6252 40.5585 26.1352 39.9991 28.3352 39.3279L28.3552 39.3177ZM23.5052 31.6292H24.8352C25.4952 31.6292 26.0452 32.1784 26.0452 32.8598V33.4089H22.3052V32.8598C22.3052 32.1885 22.8452 31.6292 23.5152 31.6292H23.5052ZM108.545 39.7652L108.625 35.2599C108.625 34.9853 108.875 35.3514 108.935 35.4633C109.815 36.9583 110.625 38.0872 111.925 39.4093C112.295 39.7856 112.365 39.755 113.015 39.755H115.805C113.765 38.0465 112.635 36.6735 111.555 34.5988C111.335 34.1208 111.345 34.1717 111.655 33.7242C112.055 33.2462 112.565 32.6157 113.125 31.9546L115.505 29.107C115.505 29.107 115.525 29.0663 115.535 29.046H113.005C112.545 29.046 112.555 28.9748 112.235 29.3307C111.275 30.3884 110.165 31.619 109.275 32.6258C109.165 32.7479 109.035 32.8394 108.925 32.9208C108.555 33.1852 108.625 33.114 108.625 32.7377L108.605 25.0898L105.915 25.1102L105.885 39.755H108.545V39.7652ZM46.0552 39.4093L45.8152 37.0193C44.6052 37.121 43.3152 37.4668 42.0252 37.3142C40.7352 37.1718 40.5752 36.4701 40.5652 35.4023C40.5652 34.7616 40.5352 34.0293 40.5752 33.3886C40.6252 32.514 40.8752 31.9546 42.0252 31.8224C43.3152 31.68 44.6052 32.0156 45.8152 32.1173L46.0552 29.7274C41.4252 28.6188 38.5352 29.168 37.8952 32.8191C37.7652 33.5818 37.8252 36.0938 38.0052 36.8159C38.8252 40.0093 41.6552 40.4568 46.0552 39.3991V39.4093ZM31.5252 29.2087H29.8352C29.8352 30.0528 29.8352 30.8969 29.8252 31.741C30.4052 31.741 30.9452 31.741 31.5352 31.7512C31.5352 32.6055 31.5352 33.5106 31.5352 34.3751C31.5352 35.2802 31.5352 36.1243 31.5352 36.8667C31.5352 37.9346 31.7452 38.8601 32.3352 39.3381C32.5852 39.5415 32.9452 39.6432 33.3852 39.694C34.4352 39.8161 35.7452 39.755 36.6352 39.4601C36.6052 38.738 36.5752 38.016 36.5452 37.2837C35.5052 37.3854 34.2252 37.6193 34.2352 37.0702C34.2352 35.2294 34.2352 33.592 34.2352 31.741C35.0652 31.741 35.8552 31.741 36.6952 31.7309C36.6952 30.8868 36.6952 30.0528 36.6952 29.2087C35.8752 29.2087 35.0652 29.2087 34.2452 29.1985C34.2452 28.3646 34.2452 27.5205 34.2452 26.6865C33.3452 26.6865 32.4352 26.6865 31.5352 26.6865C31.5352 27.5205 31.5352 28.3544 31.5352 29.1985L31.5252 29.2087ZM14.9952 39.7652L17.6252 39.8161L17.7252 29.2494H14.9852L14.9952 39.755V39.7652ZM50.8552 29.0765H53.2152C55.0552 29.0765 56.5652 30.6122 56.5652 32.4835V36.521C56.5652 38.3923 55.0552 39.9279 53.2152 39.9279H50.8552C49.0152 39.9279 47.5052 38.3923 47.5052 36.521V32.4835C47.5052 30.6122 49.0152 29.0765 50.8552 29.0765ZM51.3752 31.6393C50.7152 31.6393 50.1652 32.1885 50.1652 32.8699V36.1548C50.1652 36.8261 50.7052 37.3854 51.3752 37.3854H52.7052C53.3652 37.3854 53.9152 36.8362 53.9152 36.1548V32.8699C53.9152 32.1987 53.3752 31.6393 52.7052 31.6393H51.3752ZM60.9652 39.7754C60.9852 37.0803 61.0152 34.3954 61.0352 31.7004C61.6952 31.7004 62.3552 31.7004 63.0152 31.7004C63.5352 31.7004 64.0552 32.0462 64.0552 32.6157V39.7754H66.7152L66.7852 31.6902C67.5052 31.6902 68.2352 31.6902 68.9552 31.6902C69.5952 31.6902 70.0152 32.0563 70.0152 32.6767V39.7754H72.6552L72.7452 32.1479C72.7652 30.5206 71.8852 29.1884 70.0752 29.1985C69.5052 29.1985 68.9252 29.2087 68.3552 29.2189C67.4852 29.2189 67.0252 29.3918 66.4952 29.9511C66.0952 30.3681 66.2952 30.3783 65.9252 29.9816C65.3952 29.4019 64.7552 29.2087 63.9352 29.2087H62.7252C61.9852 29.2392 61.5152 29.4731 60.9652 30.0427C60.5252 30.5003 60.5752 30.6427 60.5752 29.9308V29.2697C59.8252 29.2697 59.0552 29.2697 58.3152 29.2799C58.3152 32.7784 58.3152 36.2769 58.3252 39.7754H60.9552H60.9652ZM98.2252 39.7754C98.2452 37.0803 98.2752 34.3954 98.2952 31.7004C98.9652 31.7004 99.6352 31.7004 100.295 31.7004C100.885 31.7004 101.355 32.0665 101.355 32.6767C101.355 35.0463 101.355 37.4058 101.355 39.7754H104.045C104.065 37.4261 104.085 35.0667 104.115 32.7174C104.135 30.8563 103.415 29.1985 101.235 29.1985H100.005C99.2852 29.229 98.8152 29.4528 98.2752 29.9816C97.8152 30.4393 97.8252 30.6834 97.8252 29.9613V29.2596H95.5252C95.5252 32.7581 95.5352 36.2769 95.5352 39.7754H98.2052H98.2252ZM88.2152 35.2294H91.1452V36.7854C91.1452 37.4363 89.2952 37.4566 88.1152 37.4363C87.2552 37.4159 87.3552 37.4363 87.3152 36.6633C87.3052 36.3684 87.3152 36.0837 87.3152 35.7887C87.3152 35.1887 87.4352 35.2294 88.2152 35.2294ZM80.5752 33.3479V36.2464C80.5752 36.9176 80.0352 37.4769 79.3652 37.4769H78.0052C77.0552 37.4769 77.0552 37.4871 77.0552 36.1142V33.0021C77.0552 31.6292 77.0552 31.6393 78.0052 31.6393H79.3652C80.0252 31.6393 80.5752 32.1885 80.5752 32.8699V33.3479Z" fill="#004522"/>
<defs>
<linearGradient id="paint0_linear_13_12027" x1="101.125" y1="16.6491" x2="79.9744" y2="2.08512" gradientUnits="userSpaceOnUse">
<stop stop-color="#006840"/>
<stop offset="0.4" stop-color="#007A48"/>
<stop offset="1" stop-color="#86C440"/>
</linearGradient>
<linearGradient id="paint1_linear_13_12027" x1="88.0052" y1="0.193866" x2="100.522" y2="8.81296" gradientUnits="userSpaceOnUse">
<stop stop-color="#006840"/>
<stop offset="0.3" stop-color="#007A48"/>
<stop offset="1" stop-color="#86C440"/>
</linearGradient>
</defs>
</svg>
